<?xml version="1.0" encoding="UTF-8"?>
<!-- Generator: Adobe Illustrator 22.1.0, SVG Export Plug-In . SVG Version: 6.00 Build 0)  -->
<svg version="1.1" id="Ebene_1" xmlns="http://www.w3.org/2000/svg" xmlns:xlink="http://www.w3.org/1999/xlink" x="0px" y="0px" viewBox="0 0 409 106" enable-background="new 0 0 409 106" xml:space="preserve">
<g>
	<defs>
		<rect id="SVGID_1_" x="8.7" y="11.4" width="394.9" height="86.3"/>
	</defs>
	<clipPath id="SVGID_2_">
		<use xlink:href="#SVGID_1_" overflow="visible"/>
	</clipPath>
	<path clip-path="url(#SVGID_2_)" fill="#0F0014" d="M148.7,53.7c-1.5,0-2.8,0.3-4.1,0.8c-1.3,0.5-2.4,1.3-3.3,2.3   c-1,1-1.7,2.2-2.2,3.5c-0.5,1.3-0.8,2.8-0.8,4.4c0,1.6,0.3,3.1,0.8,4.4c0.5,1.3,1.3,2.5,2.2,3.4c0.9,0.9,2,1.6,3.2,2.1   c1.2,0.5,2.5,0.7,3.8,0.7c1.2,0,2.5-0.2,3.8-0.5c1.3-0.3,2.6-0.8,3.9-1.3c0-0.3,0-0.6-0.1-1c0-0.4,0-1.2,0-2.4v-1.6   c0-0.4,0.1-0.7,0.2-0.9c0.1-0.3,0.3-0.5,0.6-0.6c0.2-0.1,0.6-0.2,1-0.3c0.4-0.1,0.7-0.1,0.9-0.1v-1.1h-9.1v1.1   c0.3,0,0.7,0.1,1.3,0.1c0.5,0.1,1,0.2,1.3,0.3c0.4,0.1,0.6,0.4,0.7,0.7c0.1,0.3,0.2,0.7,0.2,1.1V70c0,0.4,0,0.8,0,1.3   c0,0.5,0,1-0.1,1.5c-0.3,0.3-0.8,0.6-1.5,0.8c-0.7,0.3-1.5,0.4-2.4,0.4c-1.2,0-2.2-0.2-3.1-0.7c-0.9-0.5-1.7-1.2-2.3-2   c-0.6-0.8-1.1-1.9-1.4-3c-0.3-1.2-0.5-2.4-0.5-3.7c0-1.5,0.2-2.8,0.5-4c0.3-1.2,0.8-2.2,1.4-3c0.6-0.8,1.3-1.5,2.1-1.9   c0.8-0.4,1.8-0.6,2.8-0.6c1,0,1.8,0.2,2.5,0.5c0.7,0.4,1.3,0.9,1.7,1.5c0.5,0.6,0.9,1.3,1.2,2.1c0.3,0.8,0.6,1.6,0.8,2.4h1.2   l-0.1-7.2h-1.2l-0.6,1c-0.7-0.4-1.4-0.7-2.3-1C150.9,53.9,149.9,53.7,148.7,53.7"/>
	<path clip-path="url(#SVGID_2_)" fill="#0F0014" d="M171.3,54.2h-8.8v1c0.3,0,0.6,0.1,1,0.2c0.4,0.1,0.7,0.2,0.9,0.3   c0.3,0.2,0.6,0.4,0.7,0.6c0.1,0.3,0.2,0.5,0.2,0.9v14.8c0,0.4-0.1,0.7-0.2,0.9c-0.1,0.2-0.3,0.4-0.6,0.6c-0.2,0.1-0.5,0.1-0.9,0.2   c-0.4,0-0.8,0.1-1,0.1v1h16.2l0.4-6.2h-1c-0.2,0.6-0.6,1.3-1.1,2.2c-0.5,0.9-1,1.6-1.4,2c-0.1,0.2-0.3,0.3-0.6,0.4   c-0.3,0.1-0.6,0.2-0.9,0.2c-0.4,0.1-0.7,0.1-1.1,0.1c-0.4,0-0.8,0-1.1,0c-0.8,0-1.4,0-1.9-0.1c-0.4-0.1-0.8-0.2-1-0.3   c-0.2-0.2-0.4-0.5-0.4-0.8c-0.1-0.4-0.1-0.9-0.1-1.5V57.1c0-0.3,0.1-0.6,0.2-0.9c0.1-0.3,0.3-0.5,0.7-0.6c0.2-0.1,0.5-0.1,0.9-0.2   c0.4-0.1,0.8-0.1,1.1-0.1V54.2"/>
	<path clip-path="url(#SVGID_2_)" fill="#0F0014" d="M187.6,66.4l3.1-8l3.1,8H187.6 M192.2,53.9H191c-1,2.5-2.1,5.4-3.4,8.7   c-1.3,3.2-2.4,6.2-3.4,8.8c-0.2,0.5-0.4,0.9-0.6,1.2c-0.2,0.3-0.5,0.6-0.9,0.8c-0.2,0.2-0.6,0.3-0.9,0.4c-0.4,0.1-0.7,0.1-1,0.2v1   h7.8v-1c-0.8,0-1.5-0.2-2.1-0.4c-0.6-0.2-0.9-0.5-0.9-0.9c0-0.2,0-0.4,0.1-0.6c0.1-0.3,0.1-0.6,0.3-1c0.1-0.4,0.3-0.9,0.5-1.4   c0.2-0.5,0.4-1.1,0.7-1.8h7.3l1.7,4.6l0.1,0.3l0,0.3c0,0.2-0.3,0.4-0.8,0.5s-1.1,0.2-1.9,0.3v1h8.6v-1c-0.2,0-0.5-0.1-0.9-0.2   c-0.4-0.1-0.7-0.2-0.9-0.3c-0.3-0.2-0.6-0.5-0.8-0.7c-0.2-0.2-0.4-0.5-0.5-0.9L192.2,53.9"/>
	<path clip-path="url(#SVGID_2_)" fill="#0F0014" d="M226.1,54.2h-8.5v1c0.3,0,0.8,0.1,1.4,0.2c0.6,0.1,1.1,0.3,1.4,0.6   c0.3,0.2,0.5,0.7,0.7,1.3c0.2,0.7,0.2,1.6,0.2,2.7v8.5c0,0.6-0.1,1.2-0.2,1.7c-0.2,0.6-0.4,1.1-0.8,1.7c-0.4,0.6-1,1-1.7,1.3   c-0.7,0.3-1.6,0.5-2.7,0.5c-1.1,0-2-0.2-2.7-0.5c-0.7-0.3-1.2-0.8-1.6-1.3c-0.4-0.5-0.6-1.1-0.7-1.7c-0.1-0.6-0.2-1.2-0.2-1.7V57   c0-0.3,0.1-0.6,0.2-0.9c0.1-0.3,0.3-0.5,0.7-0.6c0.2-0.1,0.5-0.1,0.9-0.2c0.4-0.1,0.8-0.1,1-0.1v-1h-8.6v1c0.2,0,0.6,0.1,0.9,0.2   c0.4,0.1,0.7,0.2,0.9,0.3c0.3,0.2,0.6,0.4,0.7,0.6c0.1,0.2,0.2,0.5,0.2,0.9v12.3c0,0.8,0.2,1.5,0.5,2.2c0.3,0.7,0.8,1.4,1.5,1.9   c0.7,0.6,1.5,1,2.5,1.3c1,0.3,2.1,0.5,3.3,0.5c0.8,0,1.6-0.1,2.4-0.3c0.9-0.2,1.7-0.6,2.4-1.1c0.8-0.5,1.4-1.2,1.9-2.1   c0.5-0.8,0.7-1.8,0.7-3v-9c0-1,0.1-1.9,0.2-2.6c0.1-0.7,0.4-1.2,0.7-1.4c0.3-0.2,0.8-0.4,1.3-0.5c0.5-0.1,0.9-0.2,1.2-0.2V54.2"/>
	<path clip-path="url(#SVGID_2_)" fill="#0F0014" d="M239.6,53.7c-1.4,0-2.7,0.3-3.9,0.8c-1.2,0.5-2.3,1.3-3.1,2.2   c-0.9,1-1.6,2.1-2.1,3.5c-0.5,1.3-0.8,2.9-0.8,4.5c0,1.7,0.3,3.1,0.8,4.5c0.5,1.3,1.2,2.4,2.1,3.4c0.9,0.9,1.9,1.6,3,2.1   c1.1,0.5,2.3,0.7,3.6,0.7c1.9,0,3.6-0.4,4.9-1.3c1.4-0.9,2.5-2.3,3.3-4.4l-1.1-0.5c-0.2,0.6-0.5,1.2-0.9,1.8   c-0.4,0.5-0.8,1-1.3,1.5c-0.5,0.4-1.1,0.7-1.7,1c-0.7,0.2-1.4,0.4-2.2,0.4c-1.1,0-2-0.2-2.9-0.7c-0.9-0.5-1.6-1.1-2.2-1.9   c-0.6-0.8-1.1-1.8-1.4-2.9c-0.3-1.1-0.5-2.3-0.5-3.7c0-1.5,0.2-2.9,0.5-4.1c0.3-1.2,0.8-2.2,1.3-3c0.6-0.8,1.3-1.4,2.1-1.9   c0.8-0.4,1.7-0.6,2.6-0.6c0.8,0,1.6,0.2,2.2,0.6c0.6,0.4,1.2,0.9,1.7,1.6c0.4,0.6,0.8,1.3,1.1,2.1c0.3,0.8,0.5,1.6,0.7,2.3h1.2   l-0.1-7.4h-1.2l-0.6,1c-0.7-0.5-1.5-0.8-2.4-1.1C241.6,53.8,240.6,53.7,239.6,53.7"/>
	<path clip-path="url(#SVGID_2_)" fill="#0F0014" d="M273,54.2h-8.6v1c0.3,0,0.6,0.1,1,0.2c0.4,0.1,0.7,0.2,1,0.3   c0.3,0.1,0.5,0.3,0.7,0.6c0.1,0.3,0.2,0.5,0.2,0.9v6.3h-9.7V57c0-0.3,0.1-0.6,0.2-0.9c0.1-0.3,0.3-0.5,0.7-0.6   c0.2-0.1,0.5-0.1,0.9-0.2c0.4-0.1,0.7-0.1,1-0.1v-1h-8.6v1c0.3,0,0.6,0.1,1,0.2c0.4,0.1,0.7,0.2,1,0.3c0.3,0.1,0.5,0.3,0.7,0.6   c0.1,0.3,0.2,0.5,0.2,0.9v15c0,0.4-0.1,0.7-0.2,0.9c-0.1,0.2-0.4,0.4-0.6,0.5c-0.2,0.1-0.5,0.1-0.9,0.2c-0.4,0-0.8,0.1-1,0.1v1h8.6   v-1c-0.2,0-0.6-0.1-1-0.1c-0.4-0.1-0.7-0.2-0.9-0.3c-0.3-0.2-0.6-0.4-0.7-0.6c-0.1-0.2-0.2-0.5-0.2-0.9v-7.2h9.7v7.4   c0,0.4-0.1,0.7-0.2,0.9c-0.1,0.2-0.4,0.4-0.6,0.5c-0.2,0.1-0.5,0.1-0.9,0.2c-0.4,0-0.8,0.1-1,0.1v1h8.6v-1c-0.2,0-0.6-0.1-1-0.1   c-0.4-0.1-0.7-0.2-0.9-0.3c-0.3-0.2-0.6-0.4-0.7-0.6c-0.1-0.2-0.2-0.5-0.2-0.9V57c0-0.3,0.1-0.6,0.2-0.9c0.1-0.3,0.3-0.5,0.7-0.6   c0.2-0.1,0.5-0.1,0.9-0.2c0.4-0.1,0.7-0.1,1-0.1V54.2"/>
	<path clip-path="url(#SVGID_2_)" fill="#0F0014" d="M282.9,66.4l3.1-8l3.1,8H282.9 M287.5,53.9h-1.2c-1,2.5-2.1,5.4-3.4,8.7   c-1.3,3.2-2.4,6.2-3.4,8.8c-0.2,0.5-0.4,0.9-0.6,1.2c-0.2,0.3-0.5,0.6-0.9,0.8c-0.2,0.2-0.6,0.3-0.9,0.4c-0.4,0.1-0.7,0.1-1,0.2v1   h7.8v-1c-0.8,0-1.5-0.2-2.1-0.4s-0.9-0.5-0.9-0.9c0-0.2,0-0.4,0.1-0.6c0.1-0.3,0.1-0.6,0.3-1c0.1-0.4,0.3-0.9,0.5-1.4   c0.2-0.5,0.4-1.1,0.7-1.8h7.3l1.7,4.6l0.1,0.3l0,0.3c0,0.2-0.3,0.4-0.8,0.5s-1.1,0.2-1.9,0.3v1h8.6v-1c-0.2,0-0.5-0.1-0.9-0.2   c-0.4-0.1-0.7-0.2-0.9-0.3c-0.3-0.2-0.6-0.5-0.8-0.7c-0.2-0.2-0.3-0.5-0.5-0.9L287.5,53.9"/>
	<path clip-path="url(#SVGID_2_)" fill="#0F0014" d="M321.4,54.2h-8.5v1c0.3,0,0.8,0.1,1.4,0.2c0.6,0.1,1.1,0.3,1.4,0.6   c0.3,0.2,0.5,0.7,0.7,1.3c0.2,0.7,0.2,1.6,0.2,2.7v8.5c0,0.6-0.1,1.2-0.2,1.7c-0.2,0.6-0.4,1.1-0.8,1.7c-0.4,0.6-1,1-1.7,1.3   s-1.6,0.5-2.7,0.5c-1.1,0-2-0.2-2.7-0.5c-0.7-0.3-1.2-0.8-1.6-1.3c-0.4-0.5-0.6-1.1-0.7-1.7c-0.1-0.6-0.2-1.2-0.2-1.7V57   c0-0.3,0.1-0.6,0.2-0.9c0.1-0.3,0.3-0.5,0.7-0.6c0.2-0.1,0.5-0.1,0.9-0.2c0.4-0.1,0.8-0.1,1-0.1v-1h-8.6v1c0.2,0,0.6,0.1,0.9,0.2   c0.4,0.1,0.7,0.2,0.9,0.3c0.3,0.2,0.6,0.4,0.7,0.6c0.1,0.2,0.2,0.5,0.2,0.9v12.3c0,0.8,0.2,1.5,0.5,2.2c0.3,0.7,0.8,1.4,1.5,1.9   c0.7,0.6,1.5,1,2.5,1.3c1,0.3,2.1,0.5,3.3,0.5c0.8,0,1.6-0.1,2.4-0.3c0.9-0.2,1.7-0.6,2.4-1.1c0.8-0.5,1.4-1.2,1.9-2.1   c0.5-0.8,0.7-1.8,0.7-3v-9c0-1,0.1-1.9,0.2-2.6c0.1-0.7,0.4-1.2,0.7-1.4c0.3-0.2,0.8-0.4,1.3-0.5c0.5-0.1,0.9-0.2,1.2-0.2V54.2"/>
	<path clip-path="url(#SVGID_2_)" fill="#1D1D1B" d="M58.2,54.7h0.1v0.1h-0.1V54.7z M58.4,54.8v-0.1l0.1,0.1H58.4 M57.8,54.6h0.1   v0.1h-0.1V54.6z M57.9,54.7v-0.1l0.1,0.1H57.9 M57.7,54.6v-0.1l0.1,0.1H57.7 M54.3,54v-0.1V54 M54,53.5v-0.1l0.1,0.1h0.1l0.1,0.1   l0.2,0.1l0.3,0.1l0.1,0.1h0.1h0.3l0.1,0.1l0.1,0.1h0.1H56l0.3,0.1h0.1l0.1,0.1H57v0.1h0.1h0.6v0.1h-0.6H57h-0.1v-0.1h-0.2h-0.2   h-0.2v-0.1h0v0.1h-0.1v0L56,54.4h-0.1h-0.1v-0.1h-0.1h-0.1v-0.1v0h-0.1h-0.1h-0.1V54h-0.1h-0.1l-0.1-0.1v-0.1h0v0.1h-0.1h-0.1h-0.1   v-0.1h-0.2h-0.1L54,53.7l-0.1-0.1l-0.1-0.1h0.1H54l0,0.1h0V53.5 M53.2,53.2v-0.1h0.5l0.1,0.1h0.1l0.1,0.1h0v0.1h-0.1h-0.1h-0.1   l-0.2,0l-0.1-0.2h-0.1V53.2 M40.5,17.2H11.1l0,0.7l0.4,0c0.2,0,0.3,0,0.5,0s0.4,0,0.7,0c2.4,0,6.5,0.4,6.7,4.9c0,0.7,0,1.9,0,2.8   v41.3c-0.3,6.8-3,6.4-8.7,6.6l0,1.2h30.1c11.7,0,25-5.5,22.1-19.7h-3h-0.2v-0.1h-1h-0.2l-0.1-0.1h-0.1H58l-0.1-0.1h-0.1l-0.1-0.1   h-0.6H57v-0.1h-0.5l-0.1-0.1h-0.1L56,54.2h-0.1h-0.1L55.6,54l-0.1-0.1h-0.3h-0.1l-0.1-0.1l-0.3-0.1l-0.2-0.1l-0.1-0.1h-0.1L54,53.3   l-0.1-0.1h-0.1l-0.1-0.1h-0.5h-0.1h0.1v0.1v0.1h0c4.2,13.9-7.8,20.5-17.8,20.5l-0.5,0c-4.3-0.1-7-1.1-7.2-9.8   c0-16.5-0.1-24.9,0-41.7c0-0.7-0.6-3.2,3.6-3.2l0.5,0c1.5,0,5.2,0.1,6.1,0.1c13.1,0.2,16.8,14.5,8.6,21.7l0.3,0.1V41v0.1h-0.1v0.1   h0.1H47h0.1v0.1h0h0.1h0.1v0.1h0.1h0.1v0.1h0.1v0.1h0.1h0.1v0.1H48h0.1h0.1v0.1h-0.1H48v0h0.1h0.1h0.1h0.2h0.1V42h0.1v0.1v0.1h-0.1   v0h0.1h0l0,0h0v-0.1h0.1v0.1c0.2-0.1,0.5-0.2,0.7-0.3c1.8-0.7,3.4-1.6,4.8-2.7c1.5-1.1,2.6-2.5,3.4-4c0.8-1.6,1.2-3.4,1.2-5.4   c0-2.4-0.6-4.4-1.7-5.9c-1.1-1.6-2.6-2.9-4.3-3.8c-1.9-1.1-3.8-1.7-6-2.2C45,17.4,42.7,17.2,40.5,17.2"/>
	<path clip-path="url(#SVGID_2_)" fill="#1D1D1B" d="M71.8,54.3L71.8,54.3l0,0.1v0.1h0l0.1,0.1l-0.1-0.1v-0.1V54.3 M71.8,53.5   L71.8,53.5L71.8,53.5l0,0.1h0V53.5 M72,55.1h0.1L72,55.2h-0.1v-0.1H72 M72.2,54.3v-0.1h0.1l0.1,0.1h-0.1H72.2 M72,53.4L72,53.4   l0,0.1v0.1v0.1v-0.1v-0.1l0.2,0.5h0v0.1h-0.1H72v0h0.1h0.1v0.1v0.1v0.1h-0.1v0.1h0.1v0.1h-0.1v0.1H72L71.9,55l0.1-0.1h0.1V55H72   h-0.1v0.1h-0.2L71.5,55h-0.1h-0.1h-1.5l-4.9,13.6c-2.2,4.6-4.4,4.9-7,4.9c-0.3,0-0.5,0-0.8,0c-0.3,0-0.5,0-0.8,0c-0.3,0-0.6,0-1,0   l-0.1,1.1l18.6-0.1l0-1c-0.5,0-0.9,0-1.3,0c-7.9,0-5.5-2.9-4.9-5.5l0.4-1.3l4.4-12.4v0l0,0l0,0l-0.1-0.1h-0.1V54L72,53.6L72,53.4   L72,53.4 M71.7,53.2l-0.2,0.3L71.7,53.2 M71.7,53.2L71.7,53.2L71.7,53.2L71.7,53.2 M93,49.6h-0.2v0L93,49.6L93,49.6z M95.8,49.1   L95.8,49.1v0.1h-0.1h0.1v0.1v0.1v-0.1v-0.1V49.1 M94.1,48.6L94.1,48.6l0,0.1H94h-0.1h-0.1v0h0v0.1h0v-0.1h0.1H94h0.1V48.6    M92.4,48.3h-0.1h0H92.4v0.1v0.1h0l0,0h0v-0.1V48.3l0.1,0.1v0.5v0.1v-0.1v-0.5L92.4,48.3 M93.8,47.7L93.8,47.7l-0.1,0.1l-0.1,0.1   l-0.1,0.1l0.1-0.1l0.1-0.1L93.8,47.7L93.8,47.7 M94,47.6l-0.2,0.1L94,47.6 M94,47.6L94,47.6l0.3,0L94,47.6 M74.6,46.2h-0.1h-0.1v0   h0.1v0.1v-0.1L74.6,46.2L74.6,46.2 M97.3,44.7l-0.1,0.1h-0.1L96.7,45h-0.1l-0.1,0.1l0.1-0.1h0.1l0.3-0.1h0.1V45h0v-0.1L97.3,44.7    M97.4,44.5h-0.1v0L97.4,44.5L97.4,44.5z M97.7,44.3L97.7,44.3L97.7,44.3l0,0.1h0V44.3 M97.3,44.2h0.1H97.3 M98,44.1l-0.2,0.1h-0.1   h-0.1h-0.1h-0.1h-0.1v0.1l0.1,0.1h0.1v-0.1v-0.1h0.1h0.1h0.1L98,44.1l0.2,0.1h0.1h-0.1L98,44.1 M90.7,43.2L90.7,43.2v0.1h-0.1h-0.1   h-0.1v0h0.1h0.1h0.1v0.1v-0.1h0.1v0h-0.1V43.2 M99.7,43.6h0.1v0.1h-0.1V43.6z M99.8,43.2L99.8,43.2h-0.7H99v0.1v0.2v0.1h0.1h0.2   h0.1h0.1h0.1h0.1v-0.1v-0.1V43.2 M95.8,49v-0.1l0.3,0.1v0.1l-0.1,0.1L96,49.7l-0.3-0.1v-0.1v-0.1l-0.1-0.2l0.1,0.2h-0.2v0.1v0.1   l-0.2,0.1v-0.1v-0.2h0.1v-0.1h0.1v-0.1V49h0.1h0.2H95.8 M96.9,48.9v-0.1H97v0.1h0.1V49v0.1V49h0.1v0.2h-0.1v0.1H97v-0.1h0.1H97h0   v0.1h-0.2v-0.1h-0.1v-0.3h0.1v-0.1h0.1L96.9,48.9L96.9,48.9 M97.5,48.8h0.1V49h-0.1h-0.1v-0.2H97.5 M95.8,48.8v-0.1V48.8    M94.5,48.6v-0.1V48.6 M98.3,48.3h0.1v0.1v0.2v0.1h-0.6v0.1h-0.1V49h-0.1v-0.2h0.1v0h-0.1v-0.1h0.1v-0.2v-0.1h0.1H98H98.3    M95.2,48.2v-0.1h0.2v0.1v0.1h-0.2V48.2 M95.7,48.1h0.1v0.2h-0.1h-0.1v-0.2H95.7 M98.8,47.9v-0.1l0.2,0.1v0.2v0.1h-0.1v-0.1h0v0.1   h-0.1v-0.1V47.9 M99.8,44.2v-0.1h0.1L99.8,44.2 M98.9,44.1v-0.1l0.1,0.1H98.9 M98.8,43.5v-0.1V43.5v0.2h-0.1v-0.2H98.8 M99.9,43   L99.9,43h-0.3h-0.3L99,43.1h-0.1h-0.1h-0.2h-0.1l-0.1,0.1l-0.1,0.1l-0.1,0.1l0.1-0.1l0.1-0.1l0.1-0.1h0.1v0.1h-0.1v0.1h-0.1v0v0.1   h-0.1v0.1h0.1v0.1h-0.1v0h0.1h0.1v0.1l0.1,0.1h0v0.3h0v0.3h-0.1h-0.1h-0.1h-0.1v-0.3v-0.1H98h-0.1v0.1h-0.1v0.1v0.1h-0.1v0h-0.1   h-0.1v0.1v0.1v0.1h-0.1v0h0.1V45h-0.1v0.1h-0.5V45h0v0.1h-0.1v0.1h-0.1h-0.1v0h-0.3H96l-0.1,0.1l0.1-0.1h0.2h0.3h0.1v0.1h-0.1h-0.3   h-0.1H96h0v0.1v0.1h-0.1v0h-0.5v0.1v0.1v0.6l-0.1,0.1h-0.1v0.1v0.2H95v0.1h-0.5h-0.1V47v0.6h-0.1v0.1h-0.2h0v0.1H94h-0.2l-0.1,0.1   l-0.1,0.1v0.1v0.1h0.1h0.1v0.1h0v-0.1h0.1H94v-0.1h-0.1v-0.1l0.1-0.1v0.1h0.1v0.1v0.1v0.1h0v-0.1v-0.1h0.1h0.1v0.1h-0.1v0.1v0.1   h-0.1v0h0.1v0.1h0.1v0.1v0.1h0.1V49h0.1h0.1v0.1v0.1v0.1v0.1l-0.1,0.1l0.1-0.1v0.1v0.1h-1.9l6.7,17.4c2.6,5.8-0.9,6.4-4.2,6.4   c-0.5,0-0.9,0-1.4,0c-0.4,0-0.9,0-1.2,0l-0.5,0l0,1.1l26,0.1l0-1.1l-0.4,0c-7.3,0-7.6-2.5-9.3-6.3l-8.4-23.4H100h-0.1v0.1V44h-0.1   v0h0v0.1h-0.1h-0.1h-0.1v0.1h-0.1v-0.1h0v0.1h-0.1v0.1L99,44.5v-0.1v-0.1v-0.2l-0.1-0.1v-0.1v0.1l-0.1-0.1v-0.1v-0.2v-0.1v-0.1   h-0.1h-0.1v-0.1h0.1h0.1h0.1v0.1h0v-0.1H99l0.2-0.1h0.3H99.9l0,0.1h0L99.9,43L99.9,43 M92.5,43h-0.1v0L92.5,43L92.5,43z M97.7,41.4   L97.7,41.4L97.7,41.4l0,0.1h0V41.4 M91.9,42.7v-0.3H92v0.3h0v0.1L91.9,42.7 M98.8,41.1h0.1v0.1h-0.1V41.1z M89.7,14.7l-9,3.7   l1.2,2.7l-9,25.1h1.2l0.2-0.1l0.1-0.1h0.1h0.3h0.2h0.1h0.1l7.7-21.6l7.3,18.9l0,0h0.1l0.1-0.1h0.2v0.1v-0.1h0.2h0.1v0.1v0.1h-0.1v0   h0.1v-0.1v-0.1H92l0.1-0.1h0.1l0.1-0.1h0.1h0.1h0.1h0.1v-0.1h0.1v0.1h0v-0.1h0.2v0.1h0.2v-0.1h0.1v-0.1h0.1h0.2v0h-0.2v-0.1h0.2H94   v-0.1v-0.1h0.1v0.1v0.1v0.1H94v0h0.1v-0.1v-0.1v-0.1h0.1H95v-0.1h0.1v0H95v-0.1h0.1V42v-0.1h0.1h0.1V42v0.2h0.1v0.1v-0.1h0.1v-0.1   V42h0.1h0.6v-0.1h0.2h0.1h0.1h-0.1h-0.1v-0.1h0.1v-0.1h0.1v0.1v-0.1h0.6v-0.1v-0.1l0.1-0.1h0.1h1h0.1v-0.1h0.1h0.1v-0.1H99h0.1   L89.7,14.7"/>
	<path clip-path="url(#SVGID_2_)" fill="#E20613" d="M67.8,55.2h-0.1v0.1h0.1V55.2z M72.1,55.1H72h-0.1v0.1H72L72.1,55.1 M74.3,55   h-0.1v0.1L74.3,55 M58.3,54.7h-0.1v0.1h0.1V54.7z M58.4,54.7v0.1h0.1L58.4,54.7 M57.9,54.6h-0.1v0.1h0.1V54.6z M57.9,54.6v0.1H58   L57.9,54.6 M57.7,54.5v0.1h0.1L57.7,54.5 M72.4,54.3L72.4,54.3v0.1v0.2v0.1h0.1v-0.3L72.4,54.3L72.4,54.3 M72.3,54.2h-0.1v0.1h0.1   h0.1L72.3,54.2 M54.3,53.9V54V53.9 M81.9,53.5h-0.1v0.1h0.1V53.5z M54,53.3v0.1v0.1h0v-0.1h-0.1h-0.1l0.1,0.1l0.1,0.1l0.1,0.1h0.1   h0.2v0.1h0.1h0.1h0.1v-0.1h0v0.1l0.1,0.1h0.1h0.1v0.1h0.1h0.1h0.1v0v0.1h0.1h0.1v0.1h0.1H56l0.1,0.1v0h0.1v-0.1v0.1h0.2h0.2h0.2   v0.1H57h0.1h0.6v-0.1h-0.6H57v-0.1h-0.5l-0.1-0.1h-0.1L56,54.2h-0.1h-0.1L55.6,54l-0.1-0.1h-0.3h-0.1l-0.1-0.1l-0.3-0.1l-0.2-0.1   l-0.1-0.1h-0.1L54,53.3 M53.7,53.1h-0.5v0.1v0.1h0.1l0.1,0.2l0.2,0v0h0.1h0.1H54v-0.1h0l-0.1-0.1h-0.1L53.7,53.1 M52.7,53v0.1v0.1   h0v-0.1h-0.1v0.1l0.1,0.1v0h0.1h0.1h0.2h0.1h0v-0.1v-0.1h-0.1h0h-0.2h-0.1L52.7,53 M84.6,53h-0.1v0.1h0.1V53z M49.7,52.1v0.1v0.1h0   v-0.1h-0.1h-0.1l0.1,0.1l0.1,0.1c0.2,0,0.4,0.1,0.6,0.1v0h0.1h0.1v-0.1h0l-0.1-0.1h-0.2h-0.1h-0.1h-0.1v-0.1L49.7,52.1 M86.9,52   v0.3v-0.1v-0.1V52 M87.2,52l-0.1,0.1v0.3l0.2,0.1l0.1-0.1v-0.3L87.2,52 M84.5,52.4L84.5,52.4v0.1h-0.1v0h0.1V52.4 M84.1,52.3   L84.1,52.3v0.1V52.3 M84.4,51.9L84.3,52v0.1v0.1v0.1h0v-0.1h-0.1v0h0.1v-0.1h-0.1L84,52.2v0.1v0.1v0.1l-0.1,0.1l0.1,0.1h0.1h0.5   h0.1v-0.1h0v0.1l0.1-0.1l-0.1-0.2c-0.1-0.1-0.1-0.1-0.3-0.2v0.1v-0.1v-0.1l0.1-0.1L84.4,51.9 M84.9,51.9h-0.1h-0.1V52l0.1,0.1   l0.1-0.1V51.9 M86.4,52.3L86.4,52.3l0,0.1h0V52.3z M86.6,52.4l0.1-0.1L86.6,52.4 M86.5,52.1L86.5,52.1v0.1v0.1v-0.1h-0.1v0h0.1   V52.1 M86.6,51.9h-0.1L86.4,52l-0.1,0.1v0.2v0.1l0.1,0.1l0.1,0.2h0.1l0.1-0.1l0.1-0.1h-0.1h-0.1h-0.1v0h0.1h0.1h0.1v-0.1v-0.1v-0.1   h-0.1v0h0.1v-0.1V52h-0.1L86.6,51.9 M48.8,51.7v0.1V52l0.1,0.1H49h0.3l0.1,0.1v0h0.1h0.1v-0.1h-0.1V52l-0.2-0.1   C49.2,51.8,49,51.8,48.8,51.7 M83.9,51.7h-0.1v0.1h0.1V51.7z M85.8,51.6L85.8,51.6L85.8,51.6L85.8,51.6 M85.3,51.9L85.3,51.9V52   V51.9 M85.5,51.7L85.5,51.7l0,0.1v0.2h0v-0.2V51.7 M85.5,51.6l-0.2,0.2v0.1L85.2,52l0.1,0.1l0.1,0.1l0.1,0.1l0.1-0.1v-0.1v-0.2   v-0.1L85.5,51.6 M45.7,50.6h-0.1h-0.1l0.1,0.1h0.1V50.6 M89.6,50.6L89.6,50.6L89.6,50.6L89.6,50.6 M89.6,50.5L89.6,50.5v0.1V50.5    M43.8,50.2h-0.1v0.1h0.1V50.2z M88.2,51.4L88.2,51.4v0.1v0.1v0.1v0.1v-0.1v-0.1h-0.1v0h0.1v-0.1V51.4 M90,51.4L90,51.4v0.1V51.4    M90.2,51.4h0.1v0L90.2,51.4L90.2,51.4z M89.9,51.3L89.9,51.3L89.9,51.3 M90.5,51.2L90.5,51.2h0.1h0.1h-0.1H90.5 M89.9,51.2   L89.9,51.2L89.9,51.2l0.2-0.1h0.1l0.1,0.1l0.1,0.1l-0.1-0.1l-0.1-0.1H90v0.1v-0.1L89.9,51.2L89.9,51.2L89.9,51.2 M88.2,50.9   L88.2,50.9v0.1v0.1v-0.1V50.9 M88.9,50.9L88.9,50.9v0.1V50.9 M89.4,50.9L89.4,50.9v0.1v0.1h0.1l0.1,0.1l-0.1-0.1h-0.1v-0.1V50.9    M89.1,50.1H89l-0.1,0.2v0.1l0.1,0.1v0h0.1v-0.1h0v0.1h0.1v0h-0.1H89l0.3,0.2h-0.1H89h-0.1h-0.1h-0.2h-0.2l-0.2,0.1v0.1v0.1v0.2   v0.1L88,51.6l-0.1,0.1h-0.1l-0.1,0.1L87.5,52l0.1,0.1h0.1V52h0v0.1H88h0.1h0.1V52v0.1h0.5l0.1-0.1c0.3-0.1,0.8-0.2,0.3-0.5v0.1H89   h-0.1v0H89h0.1v-0.1H89l-0.1-0.1l0.1-0.2h0.1h0.1l0.2,0.1v0.1h0.1v0h-0.1l0.1,0.1h0.1h0.2v0.1H90v0h-0.1l0.1,0.1h0.1l0.1-0.1   l0.2-0.1l0.1-0.1l0.1-0.1l0.1-0.1v-0.1v-0.1l-0.1-0.1h-0.3l-0.3-0.2l-0.1,0.2h-0.1h-0.2h-0.1v-0.2v0h0.1v-0.1v-0.2h-0.1v0.2h0v-0.2   h-0.1h-0.1h-0.1H89v0.1v-0.1h0.1V50.1 M89.5,50.1h-0.1h-0.1h-0.1v0.1h0.1h0.1h0.1V50.1 M89.6,50.1h-0.1v0.1h0.1V50.1z M89.6,50.1   v0.3v-0.2V50.1 M90.7,50.1v0.1h-0.1v0.1v-0.1h-0.1v0.1v0.1l0.1,0.1v0h0.1v-0.1h0v0v0.1l0.1-0.1h0v0v-0.2L90.7,50.1 M90.7,49.9h-0.1   h-0.1h-0.3V50v-0.1H90h-0.1V50v0.1l0.1,0.1h0.5h0.1h0.1v-0.1V49.9 M91.8,49.6l-0.1,0.1h-0.1v0.1h0l0.2,0.1l0.1-0.1h0v0v-0.1   L91.8,49.6 M48.1,51.2L48,51.1L48.1,51.2 M43.7,49.4v0.1h-0.1h-0.1l0.1,0.1h0.1l0.1,0.1v0h0l0.2,0.1v0h0.1h0.1h0.1h0.1v0h-0.1h-0.1   h-0.1H44l0.2,0.1h0.1h0.1l0.1,0.1l0.1,0.1h0.1h0.1v-0.1v0.1h0.1h-0.1h-0.1h-0.1l0.2,0.1h0.1l0.1,0.1l0.1,0.1v0h0.1v-0.1v-0.1h0v0.1   v0.1h0.1h0.1h0.1H46h0.1v0H46h-0.2v0.1l0.5,0.1l0.1,0.1h0.1h0.2c-0.1,0.2-0.1,0.1,0.1,0.2c0.3,0,0.6,0.1,0.9,0.1   c0,0.2,0,0.2,0.2,0.2H48v-0.1h0v0.1l0.1,0.1v0h0.1h0.1v0h-0.1h-0.1l0.1,0.1h0.1l0.2,0.2h0.1h0.1v-0.1h0v-0.1l-0.1-0.1h-0.2v0.1h0   v-0.1h0l-0.1-0.1l-0.1-0.1h-0.1v-0.2L48,51.1h-0.1v0.1v0.1v-0.1v-0.1h-0.1h-0.3h-0.2l-0.3-0.1l-0.1-0.1v0.1h0v-0.1h0l-0.2-0.1h-0.1   v-0.1l-0.1-0.1h-0.2L46,50.4l-0.2,0.1h-0.1l-0.1-0.1l-0.2-0.1l-0.2-0.1L44.8,50l-0.1-0.1h-0.1V50h0v-0.1h0l-0.1-0.1h-0.1h-0.1   l-0.1-0.1H44v0.1h0v-0.1h0l-0.2-0.1L43.7,49.4 M91.2,49.6h0.1v0L91.2,49.6l-0.1,0.1L91.2,49.6L91.2,49.6 M91.2,49.3L91.2,49.3   l0,0.1h0V49.3z M91.3,49.3L91.3,49.3v0.1V49.3 M91.2,49.2l-0.1,0.1v0.1L91,49.6h-0.2v0.1v0.1v0.1H91v0l0.1-0.1h0v0l0.1-0.1h0.1h0.1   h0.1l-0.1-0.2v0.1v-0.1v-0.1L91.2,49.2 M42.8,48.9V49v0.1v0.1h0.1H43v0h-0.1h-0.1l0.1,0.1H43l0.1,0.1h0.2l0.1,0.1v0h0.1h0.1v-0.1h0   l-0.2-0.1h-0.2l-0.1-0.1L43,49.1C43,48.9,43,48.9,42.8,48.9 M95.8,49.1L95.8,49.1v0.1v0.1v0.1v-0.1v-0.1h-0.1v0h0.1V49.1    M95.8,48.9V49h-0.1h-0.2h-0.1v0.1v0.1h-0.1v0.1h-0.1v0.2v0.1l0.2-0.1v-0.1v-0.1h0.2l-0.1-0.2l0.1,0.2v0.1v0.1l0.3,0.1l0.1-0.5   l0.1-0.1V49L95.8,48.9 M97,48.8h-0.1v0.1h0v-0.1h-0.1v0.1h-0.1v0.3h0.1v0.1H97v-0.1h0v0h0.1v0H97v0.1h0.1v-0.1h0.1V49h-0.1v0.1V49   v-0.1H97V48.8 M97.7,48.8h-0.1h-0.1V49h0.1h0.1V48.8 M95.8,48.6v0.1V48.6 M94.5,48.5v0.1V48.5 M42.4,48.8h0.1v0L42.4,48.8   L42.4,48.8z M41.9,48.4v0.1h-0.1l0.1,0.1l0.1,0.1v0h0.1v0H42l0.5,0.1l0.1,0.1l0.1,0.1h0.1V49v-0.1h0l-0.1-0.1l-0.1-0.1h-0.1h-0.2   l-0.1-0.1H42L41.9,48.4 M91.8,48.8h0.1v0L91.8,48.8L91.8,48.8z M91.5,48.3v0.3v0.1h-0.1l0.3,0.1V49l0.1,0.1H92V49v-0.1v-0.1h0   l-0.1-0.1h-0.1h-0.1L91.5,48.3 M98.5,48.3h-0.1H98h-0.1h-0.1v0.1v0.2h-0.1v0.1h0.1v0h-0.1V49h0.1v-0.1h0.1v-0.1h0.6v-0.1v-0.2V48.3    M95.4,48.1h-0.2v0.1v0.1h0.2v-0.1V48.1 M95.8,48.1h-0.1h-0.1v0.2h0.1h0.1V48.1 M98.8,47.8v0.1v0.2v0.1h0.1v-0.1v0.1H99v-0.1v-0.2   L98.8,47.8 M40.1,46.9V47l0.1,0.1v0.1v0.1h0.1h0.1v0h-0.1h-0.1l0.1,0.1l0.1,0.1l0.1,0.1v0h0.1v-0.1v-0.1h0l-0.1-0.1l-0.1-0.1   C40.4,47,40.3,47,40.1,46.9 M39.7,46.6h-0.1v0.1h0.1V46.6z M77.3,45.8h-0.1v0.1h0.1V45.8z M78.7,45.8h-0.1v0.1h0.1V45.8z    M60.5,45.4h-0.1h-0.1h-0.2v0.1h0.2h0.1h0.1V45.4 M39.4,45.3v0.1V45.3 M39.7,44.6v0.1V44.6 M39.2,44.4L39.2,44.4v0.1V44.4    M39.3,44.2h-0.1v0.1v0.1h0.1v-0.1V44.2 M97.4,44.2h-0.1H97.4 M99.9,44.1h-0.1v0.1L99.9,44.1 M98.9,43.9v0.1H99L98.9,43.9    M99.8,43.6h-0.1v0.1h0.1V43.6z M98.8,43.5L98.8,43.5h-0.1v0.2h0.1V43.5 M98.8,43.4v0.1V43.4 M104,42.8h-0.1v0.1h0.1V42.8z    M39.5,42.7h-0.1h-0.1v0.1h0v-0.1h-0.1v0.1l0.1,0.1l0.1,0.1v0h0.1v0h-0.1v0.1v0.1l0.1,0.1v0h0.1h0.1v-0.1h0l-0.1-0.1V43l-0.1-0.2   v0.1v-0.1V42.7 M101.3,42.6L101.3,42.6 M92,42.3h-0.1v0.3l0.1,0.1v-0.1h0V42.3 M48.9,42.1h-0.1v0.1h0h0.1V42.1L48.9,42.1 M103,41.8   h-0.1v0.1h0.1V41.8z M103.1,41.6H103v0.1h0.1V41.6z M105.7,41.5h-0.5v0.1h0.5V41.5z M98.9,41.1h-0.1v0.1h0.1V41.1z M112.3,40.8   h-0.1V41h0.1V40.8z M108.4,40.4h-0.1h-0.1l0.1,0.1h0.1V40.4 M111.1,40.4h-0.1h-0.1v0.1h0.1h0.1V40.4 M112.3,40.3h-0.1v0.1h0.1V40.3   z M108.4,40v0.5v-0.1v-0.1v-0.1V40 M112.5,40.4l0.1-0.2L112.5,40.4 M112.8,40v0.3v0.1v-0.1V40h-0.1h-0.2v0.1v0.2v0.1h0.2h0.1   C112.9,40.4,113,40,112.8,40 M107.4,40.6L107.4,40.6v0.1V40.6 M107.4,40.6L107.4,40.6 M107.7,40.6L107.7,40.6l0,0.1h0V40.6z    M107.5,40.4L107.5,40.4v0.1V40.4 M107.7,40.2L107.7,40.2v0.2V40.2 M107.5,40L107.5,40v0.1V40 M107.5,40L107.5,40 M108,40L108,40   v0.1V40 M108.2,40h0.1v0L108.2,40l-0.1,0v0H108.2 M107.5,40l0.1-0.1L107.5,40 M107.8,39.8L107.8,39.8 M107.8,39.7L107.8,39.7v0.1   V39.7h-0.1v0.1v-0.1h-0.1h-0.1h-0.1v0.1v0.1v-0.1v-0.1h-0.1v0.1v0.1l0.1,0.1h0.1v0.1v0.3v0.1v0.1l0.1,0.1l0.2-0.1l0.1-0.3h-0.1v0.2   v-0.2v0h0.1h0.1h0.1v-0.1h0v0.1h0.1h0.1h0.1v-0.1v-0.1l-0.1,0.1l0.1-0.1V40l-0.1-0.1l-0.1-0.1l-0.1,0.1L108,40h-0.1l-0.1-0.1v-0.1   V39.7 M107.8,39.6h-0.1v0.1h0.1V39.6z M107.8,39.6v0.1V39.6 M109.7,39.6L109.7,39.6 M110.7,39.6h-0.1v0.1h0.1V39.6z M111.5,40.5   L111.5,40.5l0,0.2h0V40.5z M110.9,39.8L110.9,39.8v0.1v0.2v-0.2V39.8 M111.7,39.8L111.7,39.8v0.1V40h-0.1h-0.1v0.1h0V40h-0.1h-0.1   h-0.1h-0.1h0.2h0.1h0.1v0h0.1h0.1v-0.1V39.8 M112,39.6v0.1V39.6h-0.2l-0.1,0.1h-0.1h-0.5v0.1h0v-0.1h-0.1l-0.1,0.1v0.1v0.2v0.1v0.1   h0.1h0.1v-0.1h0v0.1h0.1v0h-0.1v0.1l0.1-0.1l0.1-0.1v-0.1h0.1l0.1,0.1v0.1l-0.1,0.1v0.2h0l0.1,0.1l0.2-0.1v-0.1v-0.1v-0.2v-0.1   C111.9,39.9,112.3,39.7,112,39.6 M113.9,39.5L113.9,39.5L113.9,39.5L113.9,39.5 M113,39.3L113,39.3L113,39.3L113,39.3 M110.8,39.2   L110.8,39.2 M110.8,39.1L110.8,39.1v0.1V39.1 M113,39.5L113,39.5v0.2V39.5 M113.2,39.2L113.2,39.2v0.2v0.2v0.1h0v-0.1v-0.2h0V39.2    M113.2,39.1v0.1h0L113.2,39.1h-0.1l-0.1,0.1v0.1v-0.1v0.1h0.1v-0.1v0.1H113v0.1v-0.1v0.1v0.2l0.1,0.1h0.1h0l0.1-0.1v-0.5   L113.2,39.1 M108.7,39.7l0.1-0.1L108.7,39.7 M108.9,39.5L108.9,39.5l0,0.1v0.1h0.1v0h-0.1h-0.1v0.1v-0.1v0h0.1v-0.1V39.5    M109.7,39.6v-0.3V39.6 M109.5,39.1L109.5,39.1v0.1V39.1 M109.6,39h-0.1l-0.1,0.1l-0.1,0.1v0.2h-0.1H109v0.1v-0.1h-0.1h0h-0.1h-0.2   l-0.1,0.2l0.1,0.1l0.1,0.1l0.1,0.1v0h0.1v-0.1h0V40h0.1h0.1v0l0.1-0.1l0.1-0.1l0.1-0.1h-0.1v0.1h0v-0.1h0v0h0.1h0.1v0l0.1-0.1v-0.3   v-0.1L109.6,39 M110.8,39l-0.1,0.1l0.1,0.1v-0.1V39 M110.8,39v0.1V39 M43.9,38.9L44,39L43.9,38.9 M103.2,38.9h-0.1V39h0.1V38.9z    M114.2,39.3h0.1v0L114.2,39.3L114.2,39.3z M114.4,39.1l0.1-0.1L114.4,39.1 M114.6,38.9h-0.1l-0.2,0.1l-0.1,0.1H114l-0.1,0.1v0.2   v-0.2v0.2h0.1v-0.2h0v0.2h-0.1l0.2,0.3l0.1-0.3l0.1-0.1l0.1-0.1v-0.1h0.1V39V38.9 M111.7,38.7h-0.1H111.7 M110.8,38.4v0.2V38.4    M111,38.4l-0.1,0v0.2l0.1,0.1l0.1,0.1l0.1-0.1v-0.1l-0.1,0.1l0.1-0.1L111,38.4 M111.5,38.4L111.5,38.4l0,0.1h0V38.4z M111.7,38.2   h-0.1h-0.1v0.1l-0.1,0.1v0.1l0.1,0.1v0h0.1h0.1v-0.1v-0.1V38.2 M112.3,38l-0.1,0.1l0.1,0.1l0.1-0.1L112.3,38 M115.2,38.5   L115.2,38.5v0.1H115v0h0.1V38.5 M115.6,38.4l0.1-0.1L115.6,38.4 M115.3,38.2L115.3,38.2v0.1v0.1v-0.1V38.2 M115.3,38L115.3,38v0.1   l0.3,0.1l-0.3-0.1V38 M115.8,38L115.8,38l0,0.2v0.1v0.1h0v-0.1v-0.1V38 M115.2,38h0.1v0L115.2,38v0.1V38L115.2,38 M115.9,37.9   l0.1-0.1h0.1h-0.1L115.9,37.9 M116.5,37.4l0.1-0.1h0.1h-0.1L116.5,37.4 M116.7,37L116.7,37l0,0.1h-0.2v0h0.2V37 M117,36.8L117,36.8   v0.1V36.8 M117.5,36.7h-0.1h-0.2h-0.1v0.1h0v-0.1H117l-0.1,0.1v0.1c-0.2,0-0.4,0.1-0.6,0.1l-0.1,0.5l-0.3,0.1l-0.1,0.1l-0.2,0.1   h-0.2h-0.1l-0.1,0.2v0.2l-0.3,0.2h-0.1l-0.1,0.1v0.1v0.1h0.1v-0.1v-0.1h0v0.1v0.1V39v0.1l0.3-0.2v0h0.1v0l0.1-0.1l0.2-0.1v0h0.1v0   h-0.1h0.1l0.1-0.1h0.1l0.1-0.1c0.2-0.3,0.5-0.4,0.7-0.8l0.1-0.1h-0.1h-0.1h-0.1v0.1h0v-0.1h0v0h0.1h0.1h0.1v-0.1h0v0.1h0.1v0   l0.1-0.1h0.2v-0.1v-0.1h0V37v0.1v0.1v0.1h0.1v-0.1v0.1l0.1-0.1v-0.1l0.1-0.1h0.1v-0.2V36.7 M117.5,36.7V37v-0.2V36.7 M118.1,36.4   L118.1,36.4L118.1,36.4L118.1,36.4 M118.1,36.2L118.1,36.2v0.1V36.2 M118.1,36.1v0.1V36.1 M115.2,36L115.2,36 M117.9,36.1h0.1v0   L117.9,36.1L117.9,36.1z M118,36h-0.1l-0.1,0.1v0.2l0.1,0.1l0.1-0.1h-0.1v0h0.1h0.1v-0.1v-0.1L118,36 M118.8,35.9L118.8,35.9V36   V35.9 M118.8,35.8L118.8,35.8v0.1V35.8 M119,35.8h-0.1h-0.1v0.1V36h0.1l0.1-0.1V35.8 M116.5,35.3h-0.1v0.1h0.1V35.3z M116.2,35.1   h-0.1l-0.1,0.1v0.1h0.1v-0.1v0.1v0.1v-0.1h-0.1v0.1v0.1l0.1,0.1v0h0.1v0l0.1-0.1h0v-0.3h0L116.2,35.1 M119.2,34.4h-0.1v0.1h0.1   V34.4z M119.6,34.1L119.6,34.1 M118.9,34.3h0.1v0L118.9,34.3l-0.1,0v0H118.9 M118.7,34.3l0.1-0.1h0.1h-0.1L118.7,34.3 M118.4,34   v0.1v0.2v0.1v0.1h0v-0.1v-0.1v-0.2L118.4,34h-0.1v0.1V34v0.1v0.2v0.1v0.1l0.1,0.1v0h0.1v0l0.1-0.1l0.2-0.1l0.1-0.1l0.1-0.1   l-0.1-0.1C118.8,34,118.6,34,118.4,34 M119.6,34L119.6,34v0.1V34 M119.4,34L119.4,34v0.1V34 M119.4,33.8L119.4,33.8V34V33.8    M119.6,33.7h-0.1h-0.1v0.1v-0.1v0.1V34v0.1h0.1h0.1V34v-0.1V33.7 M119.6,33.7V34v-0.1V33.7 M120.5,33.5h-0.1v0.1h0.1V33.5z    M120.5,32.8L120.5,32.8v0.1V32.8 M120.3,32.7l-0.1,0.1l0.1,0.1h0.1l0.1,0.1h0.1v-0.2L120.3,32.7 M68.3,55.2L68.3,55.2v0.1V55.2    M68.3,55.2L68.3,55.2 M68.6,55.1L68.6,55.1L68.6,55.1v0.2V55.1L68.6,55.1 M67.1,55h0.1v0L67.1,55L67.1,55z M68.6,55h0.1v0L68.6,55   L68.6,55z M68.9,55H69v0L68.9,55l-0.1,0v0.1h0V55h0v0H68.9 M67.9,54.8L67.9,54.8l0,0.1h-0.1h-0.1v0h0.1h0.1V54.8 M64.1,54.7   L64.1,54.7h0.1l0.2,0.1l-0.2-0.1H64.1 M64.8,54.7L64.8,54.7l0,0.1h0V54.7z M66.3,54.8c0.3-0.1,0.6-0.1,0.9-0.1l0.1,0.1l-0.1-0.1   C66.9,54.7,66.6,54.8,66.3,54.8 M68.3,54.7L68.3,54.7v0.1V54.7 M69.1,54.7L69.1,54.7l0,0.1h0V54.7z M75.2,54.7L75.2,54.7l0,0.1h0   V54.7z M64.9,54.6L64.9,54.6v0.1V54.6 M71.6,54.6L71.6,54.6v0.1v0.1v-0.1V54.6 M76,54.6L76,54.6v0.1V54.6 M67.9,54.6H68v0   L67.9,54.6L67.9,54.6z M68.7,54.5L68.7,54.5v0.3V54.5 M67.9,54.5L67.9,54.5l0.1-0.1L67.9,54.5 M68.2,54.4L68.2,54.4v0.1l0.1,0.1   l0.1,0.1l-0.1-0.1l-0.1-0.1V54.4 M73.6,54.4L73.6,54.4L73.6,54.4 M71.8,54.3L71.8,54.3l0,0.1v0.1l0.1,0.1l-0.1-0.1h0v-0.1V54.3    M68,54.3L68,54.3l0.1-0.1h0.1h0.1h0.1l0.2,0.1h0.1l0.1,0.2v0.1v0.1H69h0.3h2l0.1-0.1l0.1-0.3l-0.1,0.3l-0.1,0.1h-2h-0.1h-0.1H69   h-0.1v-0.1h-0.1h0.1v-0.1l-0.1-0.2h-0.1v0.1v-0.1l-0.2-0.1h-0.1h-0.1h-0.1L68,54.3 M78.7,54.2L78.7,54.2l0,0.1h0V54.2z M78.9,53.9   L78.9,53.9V54v0.1V54V53.9 M71.9,53.8L71.9,53.8v0.1V53.8 M71.5,53.7L71.5,53.7v0.1V53.7 M78.5,53.7L78.5,53.7v0.2V54v-0.1V53.7    M78.8,53.8l0.1-0.1L78.8,53.8 M73.4,53.8l0.1-0.1L73.4,53.8 M73.5,53.7L73.5,53.7L73.5,53.7L73.5,53.7 M71.4,53.7L71.4,53.7   l0.1-0.1L71.4,53.7 M78.7,53.6L78.7,53.6v0.1v0.1v-0.1V53.6 M71.8,53.5L71.8,53.5l0,0.1h0V53.5z M80.4,53.5L80.4,53.5l0,0.1h0V53.5   z M80.8,53.5H81v0L80.8,53.5L80.8,53.5z M78.7,53.3L78.7,53.3v0.1h-0.1v0.1v-0.1h-0.1h-0.1h-0.2v0.7v0.1v-0.1v-0.7v0h0.2h0.1h0.1   h0.1V53.3 M80.5,53.3L80.5,53.3v0.1V53.3 M80.2,53.4l0.3-0.2L80.2,53.4 M82.1,53.3l0.1-0.1L82.1,53.3 M71.5,53.5L71.5,53.5l0.2-0.3   L71.5,53.5 M71.7,53.2L71.7,53.2L71.7,53.2L71.7,53.2 M78.3,53.1h0.1v0L78.3,53.1v0.1V53.1L78.3,53.1 M80.1,53.1h0.1v0L80.1,53.1   v0.2V53.1L80.1,53.1 M81.1,53.1h0.1v0L81.1,53.1L81.1,53.1z M78.7,53L78.7,53v0.1v0.1v-0.1V53 M79.1,53L79.1,53l0,0.1H79v0h0.1V53    M80.6,53L80.6,53v0.1v0.1h0.1l0.1,0.1l-0.1-0.1h-0.1v-0.1h-0.1h-0.1v0h0.1h0.1V53 M82.9,53.2c0-0.2,0-0.2,0.2-0.2   C82.9,53,82.9,53,82.9,53.2 M79.5,52.9L79.5,52.9l0,0.1h0V52.9z M82.8,52.9L82.8,52.9V53v0.1V53V52.9 M80.7,52.8L80.7,52.8v0.1   V52.8 M81.3,52.8L81.3,52.8L81.2,53L81.3,52.8 M78.6,52.8L78.6,52.8L78.6,52.8L78.6,52.8 M80.3,52.8v-0.1V52.8 M80.5,52.7   L80.5,52.7v0.1V52.7 M80.8,52.7L80.8,52.7l0,0.1h0V52.7z M82.7,52.8L82.7,52.8l0.1-0.1L82.7,52.8 M80.1,52.5L80.1,52.5v0.1V52.5    M52,52.5h0.1v0L52,52.5v0.2v0.1V53v-0.1v-0.1V52.5L52,52.5 M79.9,52.5h0.1v0L79.9,52.5L79.9,52.5z M81.1,52.5h0.1v0L81.1,52.5v0.1   V52.5l-0.1,0h-0.1v0H81H81.1 M81.9,52.5H82v0L81.9,52.5L81.9,52.5z M52.1,52.4L52.1,52.4l0.1,0.1L52.1,52.4 M50.7,52.4L50.7,52.4   v0.1v0.1v-0.1V52.4 M52.4,52.4L52.4,52.4 M80.6,52.4L80.6,52.4v0.1v0.1v-0.1h-0.1v0h0.1V52.4 M81.8,52.5L81.8,52.5l0.1-0.1H82   l0.1,0.1v0.1v0.1v0.1h0v-0.1v-0.1v-0.1h0L82,52.4h-0.1L81.8,52.5 M82.9,52.4L82.9,52.4v0.1h-0.1v0h0.1V52.4 M83,52.4L83,52.4v0.2   l0.2,0.1L83,52.7V52.4 M83.7,52.4L83.7,52.4v0.1h-0.1h-0.1v0h0.1h0.1V52.4 M50.9,52.3L50.9,52.3v0.1V52.3 M52.4,52.4v-0.1V52.4    M78.8,53h0.1H79l0.1-0.1h0.2l0.2-0.1h0.2l0.1-0.4l0.1-0.1l-0.1,0.1l-0.1,0.4h-0.2l-0.2,0.1h-0.2L79,53h-0.1H78.8v0.2V53L78.8,53   L78.8,53 M50.7,52.2L50.7,52.2h0.1h0.2l0.1,0.1h0.1h0.1h0.1l0.1,0.1l0.1,0.4h0.1v0.1V53h0v-0.1v-0.1h-0.1l-0.1-0.4v0.1h-0.1v0h0.1   v-0.1l-0.1-0.1v0.1h0v-0.1h-0.1h-0.1h-0.1l-0.1-0.1h-0.2H50.7 M79.9,52.2v-0.1V52.2 M80.5,52.1L80.5,52.1v0.2V52.1 M80.4,52.1h0.1   H80.4 M80.8,52.1L80.8,52.1v0.1v0.2h0v-0.2h0V52.1 M81.3,52.1L81.3,52.1l0,0.1l0.1,0.1l-0.1-0.1h-0.1h-0.1v0h0.1h0.1V52.1    M82.4,52.1L82.4,52.1l0,0.1h0.1v0h-0.1v0.3v0.1v0.1v0.1V53h0v-0.1v-0.1v-0.1v-0.1v-0.3h-0.1v0h0.1V52.1 M83.5,52.1L83.5,52.1   l0,0.2h0V52.1z M80.7,52.2L80.7,52.2l0.1-0.2L80.7,52.2 M82.3,52.1L82.3,52.1l0.1-0.1h0.1h0.1v0.1V52h-0.1h-0.1L82.3,52.1    M83.1,51.9L83.1,51.9V52v0.1V52V51.9 M52.3,52v-0.2V52 M79.9,51.9L79.9,51.9l0.2-0.1L79.9,51.9 M82.2,51.7L82.2,51.7v0.1V51.7    M83,51.7L83,51.7l0,0.1V52v0.1h0V52v-0.1V51.7 M83.2,51.7L83.2,51.7v0.1V51.7 M82.8,51.7h0.1l0.3-0.1l-0.3,0.1H82.8l-0.1-0.1h-0.5   l-0.1,0.1L82,51.9h-0.5h-0.5h-0.2l-0.2-0.1v0.1V52v-0.1h-0.1h-0.1V52v-0.1h-0.1L80.2,52l0.1-0.1h0.1h0.1h0.1v-0.1h-0.1l-0.1-0.1   v0.1v-0.1h-0.1h-0.1h0.2l0.1,0.1h0.1l0.2,0.1h0.2h0.5H82l0.1-0.1l0.1-0.1h0.5L82.8,51.7 M86.7,51.6l0.1-0.1L86.7,51.6 M86.6,51.4   L86.6,51.4v0.1V51.4 M86.4,51.3L86.4,51.3l0,0.1h0.1v0h-0.1h-0.1v0.1v0.1h-0.1v0h0.1v-0.1v-0.1v0h0.1V51.3 M87,51.4l0.1-0.1   L87,51.4 M86.5,51.2L86.5,51.2v0.1V51.2 M87.1,51.3l0.2-0.1L87.1,51.3L87.1,51.3L87.1,51.3L87.1,51.3L87.1,51.3 M87.3,51.1   L87.3,51.1L87.3,51.1 M87.3,51.1L87.3,51.1L87.3,51.1 M87.3,51.1L87.3,51.1L87.3,51.1 M87.3,51.1L87.3,51.1L87.3,51.1 M87.3,51.1   L87.3,51.1L87.3,51.1 M87.3,51.1L87.3,51.1L87.3,51.1 M87.3,51.1L87.3,51.1L87.3,51.1 M87.3,51.1L87.3,51.1L87.3,51.1 M87.3,51.1   L87.3,51.1L87.3,51.1 M84.4,51.1L84.4,51.1v0.1V51.1 M87.3,51.1L87.3,51.1 M84.3,51.1L84,50.9L84.3,51.1 M84.3,51.1h0.1l0.1-0.1   h0.1h0.1h0.2H85h-0.1h-0.2h-0.1h-0.1l-0.1,0.1H84.3L84,50.9h-0.1h-0.1h-0.1l-0.1,0.1l-0.1,0.1l-0.1,0.1l-0.1,0.1l0.1-0.1l0.1-0.1   l0.1-0.1l0.1-0.1h0.1h0.1H84L84.3,51.1 M85.2,50.8L85.2,50.8l0,0.1h0V50.8z M85.5,50.9l0.1-0.1h0.1h0.1h-0.1h-0.1L85.5,50.9    M85.2,50.8l0.1-0.1L85.2,50.8 M85.4,50.7L85.4,50.7v0.1V50.7 M85,50.6L85,50.6 M85,50.6L85,50.6h0.1l0.1-0.1l-0.1,0.1H85 M86,50.5   L86,50.5l0,0.1h0.1h0.2v0h-0.2H86v0.2v-0.2h-0.1v0.1v-0.1v0H86V50.5 M86.7,50.5L86.7,50.5v0.1V50.5 M86.9,50.2L86.9,50.2v0.1V50.2    M86.3,50.2h0.2v0L86.3,50.2L86.3,50.2z M87.4,50.1L87.4,50.1v0.1V50.1 M87.7,50L87.7,50v0.1v0.2v0.1v-0.1l-0.1,0.1l0.1-0.1v-0.2   V50 M85.7,49.9L85.7,49.9V50V49.9 M87.8,49.9h0.1v0L87.8,49.9V50h0L87.8,49.9L87.8,49.9L87.8,49.9 M87.2,50l0.1-0.1L87.2,50    M86.4,49.7L86.4,49.7l0,0.1v0.1h0.1h0.1v0h-0.1h-0.1h-0.1v0h0.1v-0.1V49.7 M86.2,49.9L86.2,49.9l0.1-0.2h0.2l0.1,0.1l0.1,0.1   l-0.1-0.1l-0.1-0.1h-0.1h0h-0.1L86.2,49.9 M85.5,49.6L85.5,49.6l0,0.1h0V49.6z M85.3,49.7L85.3,49.7l0.1-0.1h0.2l0.1,0.1v0.1   l0.1,0.1l0.1,0.2l0.2-0.1L86,50.1v0.1h-0.1v0.1v-0.1h-0.1h0.1H86v-0.1h0l-0.1-0.2l-0.1-0.1v-0.1l-0.1-0.1h-0.1h0h-0.1L85.3,49.7    M88.2,49.6L88.2,49.6v0.1v0.1v-0.1V49.6 M92.8,49.6H93v0L92.8,49.6l-0.2,0v0H92.8 M92.1,49.2L92.1,49.2v0.1V49.2 M92.1,49.2   L92.1,49.2 M88.7,49.6h0.1h0.1l0.2-0.1h0.1h0.5l0.1-0.1l0.1-0.1H90l0.3-0.1h0.1h-0.1L90,49.2h-0.1l-0.1,0.1l-0.1,0.1h-0.5h-0.1   l-0.2,0.1h-0.1H88.7l-0.1-0.1l-0.5,0.1L88,49.7l-0.1,0.1h-0.1l-0.1,0.1h-0.1l-0.2-0.1l0.2,0.1h0.1l0.1-0.1h0.1l0.1-0.1l0.1-0.1   l0.5-0.1L88.7,49.6 M90.5,49L90.5,49l0.1-0.1h0.2H91h-0.1h-0.1h-0.1L90.5,49 M92.4,48.9L92.4,48.9v0.3v0.1v0.2h0v-0.2v-0.1h0V48.9    M94.1,48.6L94.1,48.6v0.1H94h-0.1h-0.1v0.1h0v-0.1h0v0h0.1H94h0.1V48.6 M91.1,48.4L91.1,48.4v0.4H91v0h0.1V48.4 M93.9,48.4   L93.9,48.4l-0.1,0.2l-0.1,0.1l0.1-0.1L93.9,48.4 M93.9,48.4L93.9,48.4 M93.9,48.4L93.9,48.4 M91.2,48.3L91.2,48.3l0,0.1h0V48.3z    M92.3,48.3h0.1l0.1,0.1v0.5v0.1v0.4v0.1H93h0.2l0.2-0.1l0.1,0.1h0.2l0.1-0.3l-0.1,0.3h-0.2l-0.1-0.1l-0.2,0.1H93h-0.5v-0.1v-0.4   v-0.1v-0.5l-0.1-0.1v0.1v0.1h0h-0.1h0.1h0v-0.1v-0.1h0h0H92.3L92.3,48.3h-0.1l-0.1,0.1l0.1-0.1H92.3 M91.5,48.2l-0.2-0.1L91.5,48.2    M41.4,47.8l0.1,0L41.4,47.8 M41.5,47.8L41.5,47.8L41.5,47.8L41.5,47.8 M93.5,48.1L93.5,48.1l0.1-0.1l0.1-0.1l0.1-0.1l0,0l0,0   l-0.1,0.1l-0.1,0.1L93.5,48.1 M93.8,47.7l0.2-0.1L93.8,47.7 M94,47.6L94,47.6l0.3,0L94,47.6 M94.4,46.9L94.4,46.9l0.1-0.1h0.1h0.1   h0.2l0.1-0.1l-0.1,0.1h-0.2h-0.1h-0.1L94.4,46.9 M66.9,46.5L66.9,46.5L66.9,46.5 M39.9,46.5L39.9,46.5v0.1v0.1v0.1v-0.1v-0.1V46.5    M67,46.5l0.2,0L67,46.5 M66.5,46.4L66.5,46.4L66.5,46.4 M66.4,46.4L66.4,46.4L66.4,46.4 M39.9,46.2L39.9,46.2v0.1V46.2 M40.1,46.2   L40.1,46.2 M39.8,46.2h0.1v0L39.8,46.2L39.8,46.2z M65.8,46.2h0.2v0L65.8,46.2l-2.5,0h-0.5h-0.1v0h0.1h0.5H65.8 M74.5,46.2h0.1v0   L74.5,46.2v0.1V46.2l-0.1,0v0H74.5 M40.1,46.2v-0.1V46.2 M95,46.5L95,46.5l0.1-0.1l0.1-0.2l-0.1,0.2L95,46.5 M79.5,45.8L79.5,45.8   L79.5,45.8 M79.3,45.8L79.3,45.8L79.3,45.8 M79.5,45.8l0.4-0.1L79.5,45.8 M39.3,45.4L39.3,45.4v0.2V45.4 M95.3,45.7L95.3,45.7   l0.1-0.1l0.5-0.1l-0.5,0.1L95.3,45.7 M59.3,45.2L59.3,45.2l0,0.1h0V45.2z M82.4,45.2L82.4,45.2l0,0.1h0V45.2z M58.6,45.2h0.1v0   L58.6,45.2L58.6,45.2z M83.1,45.2h0.1v0L83.1,45.2L83.1,45.2z M83.5,45L83.5,45l0,0.1h0V45z M96.5,45.1L96.5,45.1l0.1-0.1h0.1   l0.3-0.1h0.1l0.1-0.1l-0.1,0.1V45h0v-0.1h-0.1L96.7,45h-0.1L96.5,45.1 M85.5,44.5L85.5,44.5l0,0.1v0.1h0v-0.1V44.5 M55.1,44.5h0.1   v0L55.1,44.5L55.1,44.5z M86.9,44.5H87v0L86.9,44.5L86.9,44.5z M97.3,44.5h0.1v0L97.3,44.5L97.3,44.5z M54.9,44.3L54.9,44.3l0,0.1   h0V44.3z M97.7,44.3L97.7,44.3l0,0.1h0V44.3z M98.5,44.3L98.5,44.3v0.1v0.1v-0.1l-0.1,0.1l0.1-0.1V44.3 M97.2,44.3L97.2,44.3v-0.1   V44.3 M97.2,44.3v-0.1h0.1h0.1h0.1h0.1h0.1l0.2-0.1l0.2,0.1h0.1h-0.1L98,44.1l-0.2,0.1h-0.1h-0.1h-0.1v0.1v0.1h-0.1L97.2,44.3    M99.4,44.2l0.1-0.1h0.1h-0.1L99.4,44.2 M53.6,44h0.1v0L53.6,44L53.6,44z M39.5,43.9L39.5,43.9v0.1V43.9 M39.6,43.9L39.6,43.9v0.2   V43.9 M99.7,44.1l0.1-0.1L99.7,44.1 M88.2,43.8L88.2,43.8l0,0.1h0V43.8z M52.3,43.7h0.1v0L52.3,43.7L52.3,43.7z M52.9,43.7H53v0   L52.9,43.7L52.9,43.7z M89.2,43.6L89.2,43.6v0.1h-0.1v0h0.1V43.6 M100.2,43.6l0.1-0.1h0.1l0.1-0.1l-0.1,0.1h-0.1L100.2,43.6    M51.5,43.4h0.1v0L51.5,43.4L51.5,43.4z M90.7,43.2L90.7,43.2l0,0.1h0.1v0h-0.1v0.1h0v-0.1h-0.1h-0.1h-0.1h0v0h0h0.1h0.1h0.1V43.2    M91,43.4l0.1-0.1L91,43.4 M99,43.2h0.1h0.7v0.2v0.1v0.1h-0.1h-0.1h-0.1h-0.1h-0.2H99v-0.1v-0.2V43.2 M99.9,43.2L99.9,43.2v0.2v0.1   v-0.1V43.2 M100.5,43L100.5,43v0.1V43 M92.4,43h0.1v0L92.4,43L92.4,43z M102.4,42.7L102.4,42.7l0,0.1h0V42.7z M102.9,42.7   L102.9,42.7l0,0.1h0V42.7z M101.6,42.7h0.1v0L101.6,42.7v0.2V42.7L101.6,42.7 M102.7,42.7h0.1v0L102.7,42.7L102.7,42.7z    M102.9,42.7l0.1-0.1h0.3H103L102.9,42.7 M102.8,42.4L102.8,42.4v0.1V42.4 M101.3,42.6v-0.1v-0.1V42.6c-0.3,0-0.6,0.1-0.9,0.1v0.1   v-0.1l-0.1,0.1l0.1-0.1C100.7,42.6,101,42.6,101.3,42.6v-0.1V42.6 M103,42.3L103,42.3v0.1V42.3 M101.3,42.3L101.3,42.3h0.1l0,0l0,0   H101.3 M101.5,42.3L101.5,42.3L101.5,42.3 M101.4,42.3l0.1-0.1L101.4,42.3 M101.5,42.2L101.5,42.2L101.5,42.2L101.5,42.2 M40.3,42   L40.3,42L40.3,42 M39.5,42L39.5,42v0.2v0.1v0.1v-0.1v-0.1V42 M40.2,42l-0.3,0L40.2,42 M101.5,42.6h0.1h0.1c0.2,0,0.4-0.1,0.6-0.1   c0-0.2,0.1-0.4,0.1-0.6l0.1-0.1l-0.1,0.1c0,0.2-0.1,0.4-0.1,0.6c-0.2,0-0.4,0.1-0.6,0.1h-0.1H101.5v-0.2V42.6 M40.3,42   c0.2,0,0.2-0.1,0.2-0.3C40.5,41.9,40.5,42,40.3,42 M40.4,41.6L40.4,41.6v0.1V41.6 M97.7,41.4L97.7,41.4l0,0.1h0V41.4z M102.7,41.4   L102.7,41.4v0.2V41.4 M104.9,41.4L104.9,41.4v0.1v0.1v-0.1V41.4 M105,41.4l0.1-0.1h0.1h-0.1L105,41.4 M102.5,41.6L102.5,41.6   l0.1-0.3h0.1l0.1-0.1h0.2h0.3h0.3h0.1h-0.1h-0.1h-0.2h-0.3H103h-0.1l-0.1,0.1h-0.1L102.5,41.6 M104.1,41L104.1,41l0,0.1h0V41z    M103.9,41.1L103.9,41.1L104,41l0.1-0.1l0.1,0.1l0.1,0.1h0.1l0.1,0.1h0.1h0.6h0.2l0.1-0.1l-0.1,0.1h-0.2h-0.6v0.1v-0.1h-0.1   l-0.1-0.1h-0.1l-0.1-0.1l-0.1-0.1L104,41L103.9,41.1 M105.8,40.8L105.8,40.8l0,0.1v0.1h0V41V40.8 M99.6,40.8h0.1v0L99.6,40.8   L99.6,40.8z M105.6,40.8L105.6,40.8L105.6,40.8L105.6,40.8 M105.6,40.8h0.1v0L105.6,40.8L105.6,40.8z M40.6,40.7L40.6,40.7l0,0.1   h-0.1v0h0.1V40.7 M105.6,40.7L105.6,40.7 M106,40.6L106,40.6v0.1V40.6 M105.6,40.7L105.6,40.7l0.2-0.1l0.1-0.1l0.2-0.1l-0.2,0.1   l-0.1,0.1L105.6,40.7 M41.1,40.2L41.1,40.2v0.1V40.2 M45.4,40.2L45.4,40.2l0,0.1h0V40.2z M101.2,40.2L101.2,40.2v0.2V40.2 M41.2,40   h0.1v0L41.2,40l-0.1,0v0H41.2 M101.6,40h0.1v0L101.6,40L101.6,40z M106.2,40L106.2,40h0.1c0.2-0.1,0.4-0.1,0.6-0.1   c-0.2,0-0.4,0.1-0.6,0.1H106.2 M103.2,39.7L103.2,39.7v0.1V39.7 M41.3,39.6L41.3,39.6v0.1v0.1v-0.1h-0.1v0h0.1V39.6 M103.1,39.5   L103.1,39.5v0.1V39.5 M43.5,39.3h0.1v0L43.5,39.3L43.5,39.3z M107.2,39.3L107.2,39.3L107.2,39.3L107.2,39.3 M41.9,39.2L41.9,39.2   l0,0.1h-0.1v0.1v-0.1v0h0.1V39.2 M104.2,39.2L104.2,39.2v0.1V39.2 M107.2,39.1L107.2,39.1 M104.2,39.1l0.1-0.1L104.2,39.1    M107.2,39.1L107.2,39.1c0.2,0,0.4-0.1,0.6-0.1C107.6,39,107.4,39.1,107.2,39.1 M108.2,38.9L108.2,38.9V39V38.9 M104.9,38.8   L104.9,38.8v0.1h-0.1h-0.1h-0.1v0h0.1h0.1h0.1V38.8 M107.8,38.9L107.8,38.9h0.3h0.1l0.2-0.2l0.1,0.1h0.1h0.2v0.1h0.1v0h-0.1h-0.2   h-0.1h-0.1v0h0.1h0.1h0.2v-0.1h-0.2h-0.1l-0.1-0.1l-0.2,0.2h-0.1V39h0v-0.1h0h0H108H107.8 M110,38.7L110,38.7v0.1V38.7 M105.5,38.7   h0.1v0L105.5,38.7l-0.3,0h-0.2h-0.1v0h0.1h0.2H105.5 M105.7,38.4L105.7,38.4v0.1V38.4 M109,38.3L109,38.3v0.5V38.3 M106.5,38.2h0.1   v0L106.5,38.2l-0.1,0v0H106.5 M108.9,38.2L108.9,38.2l0.1-0.1h0.2l0.1,0.1l0.1,0.1l0.2,0.1l0.1-0.1l-0.1,0.1l-0.2-0.1l-0.1-0.1   l-0.1-0.1H109L108.9,38.2 M109.9,38.2l0.1-0.1h0.1H110L109.9,38.2 M111.5,38L111.5,38l0,0.1h0V38z M110.2,37.9L110.2,37.9V38H110   h-0.1h-0.1v0h0.1h0.1h0.1V37.9 M109.6,37.7L109.6,37.7l0.1-0.1l0.3,0.1h0.1h0.1v0.1h0v-0.1h-0.1H110l-0.3-0.1L109.6,37.7    M110.4,37.6L110.4,37.6V38V37.6 M111.1,37.7l0.1-0.1L111.1,37.7 M111.3,37.6L111.3,37.6v0.1V37.6 M111.5,37.6L111.5,37.6v0.1v0.1   h0v-0.1h0V37.6 M112.8,37.6L112.8,37.6v0.1v0.1v-0.1V37.6 M112.9,37.6L112.9,37.6v0.1V37.6 M113.2,37.7L113.2,37.7l0.1-0.1   L113.2,37.7 M111.4,37.5L111.4,37.5v0.1V37.5 M107.8,37.5h0.1v0L107.8,37.5l-0.1,0v0.1v-0.1v0H107.8 M111.6,37.5h0.1v0L111.6,37.5   L111.6,37.5z M112.8,37.5v-0.1V37.5 M111.1,37.3L111.1,37.3l0,0.1h0V37.3z M111.7,37.3L111.7,37.3v0.1V37.3 M112.5,37.3L112.5,37.3   v0.1v0.1v-0.1V37.3 M112.8,37L112.8,37v0.1v0.1v-0.1h-0.1v0h0.1V37 M113,37L113,37v0.1v0.5v-0.5V37 M111.5,37.4h0.1l0.1-0.1h0.5   l0.1-0.5l-0.1,0.5v0.1v-0.1h-0.1h-0.3l-0.1,0.1H111.5l-0.1-0.1h-0.1v0.1v0.1h-0.1v0h0.1v-0.1v-0.1h-0.1h-0.1h0h-0.1h-0.1l-0.1,0.1   v0.1h0.1v-0.1v0.1h-0.1h-0.1v0h0.1v-0.1h-0.1l-0.2,0.1l-0.1,0.1l0.1-0.1l0.2-0.1h0.1l0.1-0.1h0.1h0.3h0.1L111.5,37.4 M113.1,36.8   L113.1,36.8v0.1V36.8 M110.2,36.7L110.2,36.7L110.2,36.7 M109.8,36.5L109.8,36.5l0,0.1v0.1h0v-0.1V36.5 M110.3,36.7l0.1-0.2   L110.3,36.7 M112.2,36.6L112.2,36.6l0.1-0.1L112.2,36.6 M113.8,36.4h0.1v0L113.8,36.4L113.8,36.4z M110.4,36.2L110.4,36.2v0.1V36.2    M110.7,36.1h0.1v0L110.7,36.1v0.1h0L110.7,36.1L110.7,36.1L110.7,36.1 M112.3,36.1h0.1v0L112.3,36.1L112.3,36.1z M114.2,36.1h0.1   v0L114.2,36.1v0.2V36.1L114.2,36.1 M113.3,35.9L113.3,35.9V36V35.9 M113.9,36.1L114,36h0.1l0.1-0.1l-0.1,0.1H114L113.9,36.1    M114.9,35.9L114.9,35.9l0,0.1h0V35.9z M111.1,35.8L111.1,35.8l0,0.1h0V35.8z M113.2,35.8L113.2,35.8v0.1V35.8 M114.6,35.8   L114.6,35.8v0.1V36h0v-0.1h0V35.8 M113.6,35.7L113.6,35.7l0,0.1h0V35.7z M115,35.7L115,35.7v0.2V35.7 M115.2,36v-0.3V36    M111.6,35.7h0.1v0L111.6,35.7l-0.1,0v0.1h0v-0.1h0v0H111.6 M111.7,35.4L111.7,35.4v0.1V35.4 M112.3,36L112.3,36l0.1-0.1h0.1   c0.2-0.1,0.5-0.2,0.7-0.2h0.1h0.1l0.5-0.1h0.1l0.1-0.1h0.2h0.1h0.2v0.1h0.1h-0.1v-0.1h-0.1h-0.1h-0.1h-0.2l-0.1,0.1v0.1h-0.1v0h0.1   v-0.1h-0.1l-0.5,0.1h-0.1h-0.1c-0.2,0.1-0.5,0.1-0.7,0.2h-0.1L112.3,36 M111.7,35.3h0.1v0L111.7,35.3L111.7,35.3z M114.8,35.2   L114.8,35.2l0.2-0.1L114.8,35.2 M115.2,35L115.2,35v0.1V35 M113,35h0.1v0L113,35L113,35z M115,35L115,35l0.1-0.1L115,35    M115.4,34.6h0.1v0L115.4,34.6v0.1v0.1h0v-0.1L115.4,34.6L115.4,34.6L115.4,34.6 M113.9,34.6L113.9,34.6L113.9,34.6 M113.8,34.4   L113.8,34.4v0.1V34.4 M114.2,34.4L114.2,34.4v0.1V34.4 M115.9,34.5v-0.1V34.5 M115.2,34.8L115.2,34.8l0.1-0.1l0.1-0.1   c0.2-0.1,0.4-0.1,0.6-0.1l0.2-0.1l0.5-0.1l-0.5,0.1l-0.2,0.1c-0.2,0-0.4,0.1-0.6,0.1l-0.1,0.1L115.2,34.8 M117.2,34.1L117.2,34.1   l0,0.2h0V34.1z M115,34L115,34v0.1V34 M114.9,33.7L114.9,33.7l0,0.1V34v0.1h0V34v-0.1V33.7 M117.1,33.6h0.1v0L117.1,33.6   L117.1,33.6z M115.2,33.5L115.2,33.5v0.2V33.5 M117.2,33.4L117.2,33.4v0.1V33.4 M115.8,33.1L115.8,33.1l0,0.1v0.1h0v-0.1V33.1    M116.6,33.8L116.6,33.8l0.1-0.1l0.3-0.2l0.1-0.1l0.1-0.1h0.1c0.2-0.1,0.4-0.2,0.6-0.2c-0.2,0.1-0.4,0.1-0.6,0.2h-0.1l-0.1,0.1   l-0.1,0.1l-0.3,0.2L116.6,33.8 M116.7,32.9l-0.3,0L116.7,32.9 M116.7,32.9l0.2-0.1L116.7,32.9 M116.3,32.8L116.3,32.8l0,0.1V33v0.1   h0V33v-0.1V32.8 M116.4,32.8L116.4,32.8v0.1V32.8 M116.9,32.8h0.1v0L116.9,32.8L116.9,32.8z M117,32.6L117,32.6v0.1V32.6 M118,32.8   L118,32.8l0.1-0.1c0.3,0,0.7-0.1,1-0.1h0.1v0.1h0v-0.1h-0.1c-0.3,0-0.7,0.1-1,0.1L118,32.8 M117.1,32.5L117.1,32.5l0,0.1h0V32.5z    M119.4,32.2L119.4,32.2v0.2V32.2 M118.1,32.1h0.1v0L118.1,32.1l-0.1,0v0H118.1 M119.5,32.1h0.1v0L119.5,32.1l-0.1,0.1l-0.1,0.2   l0.1-0.2L119.5,32.1L119.5,32.1 M119.6,31.9L119.6,31.9V32V31.9 M118.4,31.8L118.4,31.8l0,0.1h0V31.8z M119.4,31.4h0.2h0.1h0.1   h-0.1v0.1h0v-0.1h-0.1H119.4 M119.1,31.3L119.1,31.3v0.1V31.3 M119.8,31.2L119.8,31.2v0.1V31.2 M119.1,31.2l0.1-0.1L119.1,31.2    M119.6,30.7l-0.2,0.2l-0.1,0.1c-0.2,0-0.2,0-0.2,0.2v0.1h0.1v0H119v0.1h-0.1h-0.1h-0.1h-0.2l-0.1,0.1v0.1l-0.2,0.2L118,32   l-0.1,0.1l-0.1,0.1l-0.1,0.1v0.1h0.1h0.1v0h-0.1h-0.1h-0.5l-0.1-0.1l-0.1,0.1l-0.1,0.1v0.1h-0.6l-0.1,0.1v0.1l-0.1,0.1h-0.1h-0.1   l-0.1,0.1l-0.1,0.1h-0.3h-0.1l-0.1,0.1v0.1v0.1l-0.2,0.1v0.1V34h-0.3l-0.2,0.1v0.1h-0.1l-0.1,0.1h-0.3l-0.1,0.1v0.1v0.1h-0.1h-0.1   v0h0.1h0.1v-0.1v-0.1h-0.1l-0.1,0.1l-0.1,0.1v0.1v0.1h0v-0.1h-0.1H113l-0.1,0.1h-0.1V35v0.1V35h-0.1v0h0.1v-0.1h-0.1l-0.2,0.1v0.1   h-0.1h-0.6l-0.1,0.1v0.1v0.1v0.1h-0.1l-0.1,0.1h-0.5l-0.1,0.1l-0.1,0.1l-0.1,0.1h-0.2l-0.1,0.1v0.2H110h-0.2l-0.2,0.1l-0.1,0.1   h-0.1v0.1v0.1h0v-0.1v-0.1h-0.1h-0.1l-0.1,0.1v0.1h-0.2l-0.1,0.1c-0.2,0-0.5,0.1-0.7,0.1v0.1h0.1V37h0v0.1h0.1v0h-0.1v0.1h0v-0.1   H108l-0.1,0.1h-0.1l-0.1,0.1l-0.1,0.1h-0.3l-0.2,0.2l-0.2,0.1V38h0.1h0.1h0.1h0.1v-0.1v-0.1h0v0.1V38h-0.1H107h-0.1h-0.1v0.1h0V38   h-0.1v0h0.1v-0.1h-0.1l-0.1,0.1l-0.2,0.1c-0.2,0-0.5,0.1-0.7,0.1v0.1v0.1l-0.1,0.1h-0.3h-0.2h-0.1l-0.1,0.1v0.1h-0.1l-0.1,0.1h-0.1   c-0.3,0.1-0.3,0.1-0.3,0.2h-0.1h-0.1h-0.3h-0.1l-0.1,0.1v0.1h0.1v-0.1h0v0.1h0.1h0.1v-0.1v0.1h-0.1h-0.1h-0.1l-0.2,0.1l-0.1,0.1   c-0.3,0-0.6,0.1-0.9,0.1h-0.1h-0.1l-0.1,0.1v0.1l-0.1,0.1h-0.2h-0.1l-0.1,0.1v0.2h-0.2v0.1h-0.1v0.1v0.1v0.1h-0.1h-0.1v0h0.1h0.1   v-0.1v-0.1v-0.1h-0.1v0.1h-0.1v0.1h-0.8h-0.1l-0.1,0.1V41v0.1h-0.3H99h-0.1v0.1h-0.1h-0.1v0.1h-0.1h-1h-0.1l-0.1,0.1v0.1v0.1h-0.6   v0.1v-0.1h-0.1v0.1h-0.1v0.1h0.1h0.1v0h-0.1h-0.1h-0.2V42h-0.6h-0.1v0.1v0.1h-0.1v0.1h0v-0.1h-0.1V42v-0.1h-0.1h-0.1V42v0.1H95v0.1   h0.1v0H95v0.1h-0.8h-0.1v0.1v0.1v0.1H94v0h0.1v-0.1v-0.1v-0.1H94v0.1v0.1h-0.2h-0.2v0.1h0.2v0h-0.2h-0.1v0.1h-0.1v0.1h-0.2v-0.1   h-0.2v0.1h0v-0.1h-0.1v0.1h-0.1h-0.1h-0.1h-0.1L92.2,43h-0.1L92,43.1h-0.8v0.1v0.1h-0.1v0h0.1v-0.1v-0.1h-0.1h-0.2v0.1v-0.1h-0.2   l-0.1,0.1h-0.1l0,0L90,43.4c-0.3,0-0.5,0.1-0.8,0.1l-0.1,0.1l-0.2,0.1h-0.6h-0.1l-0.1,0.1v0.1v0.1L88,44.2h-0.7h-0.1H87h-0.1   l-0.2,0.2h-1h-0.2l-0.1,0.1l-0.1,0.1c-0.5,0-1-0.1-1.5-0.1l-0.2,0.2v0.1h0.1h-0.1L83.2,45l-0.1,0.1h-0.7l-0.1,0.1l-0.1,0.1h-2.2   h-0.1v0.1v0.1h0.1v0h-0.1v0.1v-0.1h-0.2h-0.9h-0.1v0.1v0.1v0.1V46v-0.1h-0.1h-0.1V46h-0.1h-0.2v-0.1H78v0h0.1v-0.1v-0.1h-0.6h-0.1   h-0.1v0.1v0.1h0.1v-0.1v0.1h-0.1V46v-0.1h-0.1h-0.1h-0.3h-0.2V46h-0.1h-0.2h-0.8h-0.1h-0.1h-0.2h-0.3h-0.1l-0.1,0.1l-0.2,0.1h-1.2   h-5.8c-0.2,0-0.4-0.1-0.6-0.1h-0.5h-0.2h-2.5L62.9,46h-0.1h-0.1l-0.3-0.1l-0.5-0.1l-0.1-0.1v0.1v0.1h0.1v0h-0.1h-0.1v0h0.1v-0.1   v-0.1h-0.1h-0.2l-0.2-0.1h-0.1H61l-0.5-0.1v0.1v0.1h0v-0.1h-0.1h-0.1h-0.2h-0.1h-0.1v0h0.1h0.1v-0.1h0l-0.1-0.1h-0.1h-0.3l-0.1-0.1   l-0.1-0.1h-0.6L58.6,45h-1.7v-0.1l-0.1-0.1h-0.1l-0.5-0.1c0-0.2,0-0.2-0.2-0.2v0.1h-0.1v0H56v-0.1h-0.1h-0.1   c-0.2-0.1-0.3-0.2-0.4-0.2l-0.2,0h-0.1c-0.3,0-0.5-0.1-0.8-0.1L54,44.1v0.1h0v-0.1h0l-0.1-0.1l-0.2-0.1h-0.1l-0.1-0.1h-0.1h-0.2   L53,43.6h-0.1h-0.1l-0.2-0.1h-0.1l-0.3-0.1H52l-0.2-0.1l-0.1-0.1h-0.1v0.1h0v-0.1h-0.1L51.3,43h-0.1h-0.1H51   c-0.1-0.3-0.2-0.4-0.5-0.4l-0.5,0v0.1l0.1,0.1l-0.1-0.1v-0.1h-0.1h-0.1h-0.1v0h0.1h0.1h0.1v-0.1h-0.1v-0.1h-0.1v-0.1h-0.1v0.1h0   v-0.1h-0.1h-0.3H49v-0.1h-0.1h-0.1h0h-0.1v0h0.1v-0.1V42h-0.1v-0.1h-0.1h-0.2h-0.1h-0.1H48v0h0.1h0.1v-0.1h-0.1H48h-0.1v-0.1h-0.1   h-0.1v-0.1h-0.1v-0.1h-0.1h-0.1v-0.1h-0.1h-0.1h0v-0.1H47h-0.1h-0.1v-0.1h0.1V41v-0.1l-0.3-0.1l-0.2,0v0.1h-0.1h-0.1v0h0.1h0.1   v-0.1c0-0.2,0-0.2-0.2-0.2v0.1v-0.1H46l-0.1-0.1c-0.1-0.2-0.1-0.2-0.3-0.2v0.1v-0.1c-0.1-0.2-0.1-0.2-0.3-0.2V40h-0.1v0h0.1v-0.1   l-0.1-0.1h-0.2l-0.1-0.1l-0.1-0.1v0.1h-0.1h-0.1v0h0.1h0.1v-0.1h0c-0.1-0.2-0.1-0.2-0.5-0.2v0.1v-0.1H44v0.1h0v-0.1h0v0h0.1v-0.1   H44h-0.2l-0.1-0.1v0.1h0v-0.1V39h0h0h-0.1l-0.1,0.1v0.1l-0.1,0.1v0.1h-0.6v0.1h0v-0.1h0l-0.2-0.1h-0.1v0h0.1v-0.1v-0.1h-0.2h-0.1   h-0.1h-0.3l-0.1,0.1v0.1h-0.1l-0.2,0.1l-0.1,0.1l-0.1,0.1v0.1v0.1L41,40v0.1v0.1v0.1h0.1v0H41v0.1h0v-0.1h-0.1v0H41v-0.1h-0.1   l-0.1,0.1l-0.1,0.1v0.1l-0.1,0.1l-0.1,0.1V41h-0.2l-0.1,0.1l0.1,0.1v0h0.1h0.1h0.1v-0.1V41v0.1v0.1v0.2v0.2v-0.2v-0.2h-0.1v0.1   v-0.1h-0.1h-0.1l0.1,0.1v0.5h-0.1v0.1h0.1v0h-0.1h-0.1v0h0.1v-0.1h-0.1l-0.1,0.1l0.1-0.1h0.1l-0.3,0l-0.2,0.1V42h0v-0.1h-0.1h-0.1   h-0.1V42v0.2v0.1l-0.1,0.1l-0.1,0.1v0.1h0.1v-0.1h0v0.1h0.1h0.1v-0.1v0.1v0.1l0.1,0.2v0.1l0.1,0.1h0.1l0.1,0.1v0.1l0,0.2l0-0.2   v-0.1l-0.1-0.1h-0.1v0.1h0.1v0h-0.1h-0.1l0.1,0.1v0.2v0.1h0v-0.1h-0.1h-0.1l-0.1,0.1v0.2l-0.1,0.1v0.1v0.1l0.1,0.1v0h0.1v0h-0.1   v0.1v0.1v0.1h0.1h0.1h0.1v-0.1v-0.1h0l-0.1-0.1l-0.1-0.1v-0.1v0.1l0.1,0.1l0.1,0.1v0.1v0.1h-0.1h-0.1h-0.1V45h-0.1l-0.1,0.1v0.1   h0.1v-0.1h0v0v0.1h0.1v0h-0.1v0.1h0v-0.1h-0.1v0.1v0.3l0.1,0.1v0.1h0.1v0h-0.1l0.1,0.1v0.1v0.1v0.1l0.1,0.1h0.2v-0.1h0v0.1h0.1v0.1   v0.1v0.1v0.1h0.1h-0.1l0.1,0.1v0.1l0.1,0.2v0h0.1v-0.1v-0.1h0L40.1,47v-0.1v-0.5v-0.2v-0.1L39.9,46v0.1V46l-0.3-0.1l-0.1-0.1   l-0.1-0.1v0.1v-0.1v-0.1v-0.1v0.1v-0.1v-0.1v-0.1v0.1v0.2v0.1l0.1,0.1l0.1,0.1l0.3,0.1l0.1,0.1v0.1v0.2v0.5c0.2,0,0.3,0.1,0.3,0.3   l0.1,0.1l0.1,0.1l0.1,0.1l0.2,0.2h0.1h0.2h-0.2H41l-0.2-0.2l-0.1-0.1v0.1v0.1l0.1,0.1l-0.1-0.1h-0.1l0.1,0.1l0.1,0.1h0.1l0.1,0.1   h0.6l0.1,0.1v-0.1v0.1v0.2l0.1,0.1h0.1v-0.1v-0.3h0l-0.1-0.1l0.1,0.1v0.3l0.1,0.1h0.1l0.1,0.1h0.2h0.1l0.1,0.1l0.1,0.1   c0.2,0,0.2,0,0.2,0.2l0.1,0.1l0.1,0.1h0.2l0.2,0.1l0.1,0.1l0.2,0.1h0.1l0.1,0.1h0.1h0.1l0.1,0.1h0.1l0.1,0.1l0.2,0.1l0.2,0.1   l0.2,0.1l0.1,0.1h0.1l0.2-0.1l0.1,0.1h0.2l0.1,0.1v0.1h0.1l0.2,0.1l0.1,0.1l0.3,0.1h0.2h0.3h0.1H48l0.1,0.1v0.2h0.1l0.1,0.1   l0.1,0.1h0.2l0.1,0.1c0.2,0,0.4,0.1,0.6,0.1l0.2,0.1v0.1h0.1l0.1,0.1v0.1h0.1h0.1h0.1h0.2l0.1,0.1h0.1l0.1-0.1l-0.1,0.1h-0.1v0.1   h0.1v0h-0.1v0.1h0v-0.1h-0.1v0.1l0.1,0.1h0.1h0.1l0.1-0.2H51l0.1,0.2h0.1v-0.2v0.2l0.3,0.2h0.1h0.1h0.1h0H52l0.3,0.1h0.2v0h0.1V53   h0l-0.1-0.1v-0.1l-0.1-0.2v-0.1v-0.1h-0.2h-0.1H52l-0.1,0.1l0.1-0.1h0.1h0.1h0.2v0.1v0.1l0.1,0.2v0.1l0.1,0.1l0.1,0.1h0.1h0.2h0   h0.1h0.5l0.1,0.1h0.1l0.1,0.1l0.1,0.1h0.1l0.1,0.1l0.2,0.1l0.3,0.1l0.1,0.1h0.1h0.3l0.1,0.1l0.1,0.1h0.1H56l0.3,0.1h0.1l0.1,0.1H57   v0.1h0.1h0.6l0.1,0.1h0.1l0.1,0.1h0.2h0.1l0.1,0.1h0.2h1V55h0.2h3h1.2h0.2v0h0.1h0.1h0.1v0h-0.1h-0.1h-0.1v0.1h0.1h0.1l0.1-0.1h0.2   v-0.1l0.1-0.2h0.1h0.1h0.1v-0.1h0l-0.1-0.1h-0.1l-0.1,0.1l-0.1,0.1l-0.2,0.1l0.2-0.1l0.1-0.1l0.1-0.1h0.1l0.1,0.1   c0.2,0,0.2,0,0.2,0.2l0.1,0.1l-0.1-0.1c0-0.2,0-0.2-0.2-0.2v0.1h-0.1l0.1,0.1h0.1v0.1h-0.1L65.3,55h0.1v0h0.1h0.1v0h-0.1h-0.1v0.1   h0.1h0.1H66h0.1V55H66v0h0.1v-0.1h0V55h0.1h0.1h0.1v0h-0.1h-0.1h-0.1v0.1h0.1h0.1l0.1-0.1H67l0.1,0.1h0.1h0.1h0.1V55v0.1h0.1h0.1   h0.1l0.1-0.1h0.5v0.1v0.1v0.1v0.1h0.1h0.1h0.1l0.1-0.3h0.1L69,55h0.2h0.5h1.5h0.1h0.1l0.1,0.1h0.2V55H72v0h0.1v-0.1H72L71.9,55   l0.1-0.1h0.1v-0.1h0.1v-0.1h-0.1v-0.1h0.1v-0.1v-0.1v-0.1h-0.1H72v0h0.1h0.1V54h0L72,53.6v0.1v0.1v-0.1v-0.1v-0.1l0,0l0,0v0.1   l0.2,0.5v0.1h0.1l0.1,0.1l0,0l0.1,0.1v0.3h0.2l0.1-0.5l0.3-0.1l-0.3,0.1l-0.1,0.5h-0.2v0.1h0.2h0.1v-0.1v-0.3v-0.1h0.3l0.1-0.1V54   v-0.1h0.1l-0.1-0.1l-0.1,0.1l0.1-0.1l0.1,0.1l0.1,0.3l-0.1-0.3V54v0.1v0.1v0.1h-0.1v0.5h0.1h0.7V55h0.1v-0.1h0V55h0.6h0.2v0H76   l0.1-0.1l0.1-0.1h0.2l0.5-0.1h-0.1h-0.2h0.2h0.1v-0.1v-0.1h-0.1c-0.2,0-0.4,0.1-0.6,0.1L76,54.6l-0.1,0.1h-0.1h-0.1h-0.1h-0.1h-0.2   h0h-0.1h-0.2l-0.2-0.1c-0.2,0-0.5,0-1.2,0.1v-0.2v0.2c0.7-0.1,1-0.1,1.2-0.1l0.2,0.1h0.2h0.5h0.1h0.1h0.1l0.1-0.1l0.2-0.1   c0.2,0,0.4-0.1,0.6-0.1h0.1H77h0.1l0.1-0.1l0.3-0.1h0.3L78,54c0-0.3,0.1-0.6,0.1-0.8l0.1-0.1l0.1-0.1l0.3-0.2L78.3,53l-0.1,0.1   l-0.1,0.1c0,0.3-0.1,0.5-0.1,0.8l-0.1,0.1h-0.3l-0.3,0.1l-0.1,0.1H77h-0.1v0.1v0.1H77h0.1h0.1v-0.1v-0.1v0.1v0.1l0.3-0.2h0.2h0.3   h0.2h0.1h0.2v-0.1v0.1h0.2H79h0.1v-0.1h0v0.1l0.1-0.1v-0.1V54v-0.1v-0.1v-0.2v-0.1h-0.1v0.1h0v-0.1H79h-0.1l-0.1,0.1l0.1-0.1H79v0   h0.1v-0.1v-0.1h0v0.1v0.1h0.1v-0.1v-0.1l0.1-0.1h0.1h0.2h0.2V53v0.1v0.1c-0.1,0.3-0.3,0.7,0,0.7l0.1,0h0.1l0.1-0.1l0.1-0.1h0.1h0.1   v-0.1v0.1v0.1h-0.1l0.1,0.1h0.1h0.1v-0.1h0v-0.1v0.1v0.1c0.3-0.1,0.3-0.1,0.5-0.3h0.1l0.1-0.1h-0.1v0h0.1v-0.1v-0.1v-0.1v0h0.1V53   h0v-0.1V53v0.1h0.2v0H82V53v0.1v0.2l0.1,0.1v0h0.1v-0.1v-0.1v0.1v0.1v0.1h0.1h0.1v-0.2v-0.1h0v0.1v0.2l0.3-0.2h0.1l0.1-0.1l0.1-0.1   l0.1-0.1v-0.1l0.2-0.1v0.1l0.1,0.1h0.1v-0.1v-0.1l0.1-0.1v-0.2h0v-0.1v-0.2h0L83.7,52h-0.3v-0.2l0.1-0.1l0.1-0.2h-0.1v0.1v0.1h-0.1   v0h0.1v-0.1v-0.1h-0.1v0h0.1v-0.1v0.1h0.1v-0.1H84h0.2h0.1v-0.1v0.1l0.1,0.1v0h0.1h0.1v-0.1h0v0.1h-0.1h-0.1l0.1,0.1l0.1-0.1   l0.1-0.1l0.2-0.1h0.1h0.2h0l0.2-0.1c0.7,0,0.2-0.3,0.7-0.3l0.1,0.1l0.1,0.1v-0.1v-0.1v-0.1h-0.1v0.1h0v-0.1h0l-0.1-0.1h-0.2v-0.1   v0.1h0.2l0.1,0.1h0.1h0.1l0.1-0.2l0.1-0.1l0.1-0.1l0.2-0.1l0,0l0,0L87,50.1l-0.1,0.1l-0.1,0.1l-0.1,0.2h-0.1v0.1h0.1l0.1,0.3   l-0.1-0.3h-0.1v0.1v0.1v0.1l-0.1,0.1l-0.1,0.1l-0.2,0.1H86l-0.1,0.1v0.1v-0.1v0.1H86v-0.1h0v0.1v0.1h0v-0.1h-0.1v0.1H86h0h0.3   l0.1-0.2h0.1l0.1,0.2h0.1l0.1-0.1l0.2-0.1l0.3-0.1v0h0.1h0.1v0h-0.1l0.1,0.1l0.1-0.1l-0.1-0.2v0.1v-0.1l-0.1-0.1l-0.1-0.1l-0.1-0.1   c-0.2-0.2-0.3-0.2-0.3-0.6h0.3l0.1,0.3v0h0.1h0.1v0h0.1c0.1-0.2,0.2-0.5,0.3-0.7l0.1-0.1v0l0.1-0.1h0.1l0.2,0.1v0h0l0.1,0.1v0h0.1   v0l0.1-0.1h0v0l0.1-0.1h0.7v0.1h0l0.1,0.1v0H90h0.1h0.3h0.1h0.1v-0.1v-0.1v-0.1h-0.1l-0.1,0.1v0.1h-0.3L90,49.7v-0.2l0.2-0.1h0.1   v-0.1h0v0h0.1v0h-0.1v0.1l0.1-0.1l0.1-0.1h0.1V49h0v0.1H91l0.1-0.1l0.1-0.1v-0.1h0.1h0.1v0h0.1v-0.1v-0.3h0v-0.1l-0.2-0.1l-0.2,0.1   L91,48.3l0.1-0.1l0.2-0.1l0.2,0.1v0.1l0.1,0.3h0.1h0.1l0.1,0.1h0.1H92v0.1V49v0.1h0.1V49v-0.1V49v0.1l0.1,0.1l-0.1-0.1v0.1v0.1h0.1   h0.1v0.2l0.1,0.1h0.4h1.9v-0.1v-0.1l-0.1,0.1l0.1-0.1v-0.1v-0.1v-0.1V49h-0.1h-0.1v-0.1h-0.1v-0.1v-0.1h-0.1v-0.1h-0.1h0.1v-0.1   v-0.1h0.1v-0.1h-0.1h-0.1v0.1v0.1v-0.1v-0.1v-0.1H94v-0.1l-0.1,0.1v0.1H94v0.1h-0.1h-0.1v0.1h0v-0.1h-0.1h-0.1v-0.1v-0.1l0.1-0.1   l0.1-0.1H94h0.1v-0.1h0.2v-0.1h0.1V47v-0.1h0.1H95v-0.1h0.1v-0.2v-0.1h0.1l0.1-0.1v-0.6v-0.1v-0.1h0.5v0H96v-0.1v-0.1h0h0.1h0.1   h0.3h0.1v-0.1h-0.1h-0.3H96l-0.1,0.1l0.1-0.1h0.2h0.3v0h0.1h0.1v-0.1h0.1V45h0v0.1h0.5V45h0.1v-0.1h-0.1h0.1v-0.1v-0.1v-0.1h0.1   h0.1v0h0.1v-0.1v-0.1h0.1v-0.1H98h0.1v0.1v0.3h0.1h0.1h0.1h0.1v-0.3h0v-0.3h0l-0.1-0.1v-0.1h-0.1h-0.1v0h0.1v-0.1h-0.1v-0.1h0.1   v-0.1v0h0.1v-0.1h0.1v-0.1h-0.1l-0.1,0.1l-0.1,0.1l-0.1,0.1l0.1-0.1l0.1-0.1l0.1-0.1h0.1h0.2h0.1H99l0.2-0.1h0.3h0.2h0h0.3h0.1   h-0.1v0.1V43h-0.2h-0.1h0v0.1h0V43h-0.2h-0.3L99,43.1h-0.1v0.1v-0.1h-0.1h-0.1h-0.1v0.1h0.1h0.1v0.1v0.1v0.2v0.1l0.1,0.1v-0.1v0.1   l0.1,0.1v0.2v0.1v0.1l0.2-0.1v-0.1h0.1v-0.1h0v0.1h0.1v-0.1h0.1h0.1h0.1v-0.1h0v0h0.1v-0.1v-0.1h0.1h0.1h0v-0.1h0.3l0.1-0.1v-0.1   v-0.2V43l0.1-0.1h0.7V43h0.1v-0.1h0V43h0.1v0h-0.1v0.1h0.1h0.1V43v-0.2h0.6l0.1,0.1h0.2h0.1l0.1-0.1h0.1c0.2,0,0.4-0.1,0.6-0.1   h-0.1v0h0.1v-0.1v-0.1v-0.1c-0.2-0.1-0.4-0.1-0.6-0.1l-0.3,0.1h-0.2V42h0.1l0.1-0.1h-0.1v0h0.1v-0.1l0.1-0.3h0.2h0.1h0.8h0.5h0.1   c0.1,0.3,0,0.3,0.2,0.3h0.1h0.1v0.1h0.1v-0.1h0v-0.1v0.1v0.1h-0.1L105,42l0.1-0.1v-0.2v-0.2c0.3,0,0.5-0.1,0.8-0.1v-0.1h-0.1   l-0.1,0.1l0.1-0.1v0h0.1v-0.1V41v-0.1l0.1-0.2l0.1-0.1l0.1-0.3c0.2,0,0.5-0.1,0.7-0.1v-0.1h0.2v-0.1v-0.1h0h0H107l-0.1,0.1l0.1-0.1   h0.2h0.1v0h0.1h0.1h0.1v-0.1h-0.1h-0.1v-0.2h-0.1v0.1v-0.1h-0.1v0h0.1h0.1v-0.1h0.2h0.1l0.1-0.1L108,39l0.1,0.1h0.1l0.1,0.1h0.1   v-0.1v0.1l0.1-0.1V39l0.5-0.1c0-0.2,0.1-0.4,0.1-0.6h0.1v-0.1v0.1v0.2l0.1,0.1v0h0.1h0.2v0h0.1v0.1l0.1,0.1v0h0.1v0h0.2h0.1   l0.1-0.1l0.1-0.1c-0.2,0-0.5-0.1-0.7-0.1v-0.1v-0.2h0.1v0h0.1h0.1v-0.1h0v0.1h0.1v0h-0.1h-0.1h0.2l0.1-0.1l0.1-0.1l0.1-0.1l0.1-0.1   h-0.1v0.1h0v-0.1h-0.1h0.1h0.1v-0.1h0.1v-0.2v0.2l0.1,0.1v0.1l0.1,0.1v0h0.1h0.1v0h-0.1l0.1,0.1l0.1,0.1v0h0.1h0.1v-0.1V38h-0.1v0   h0.1v-0.1l0.2-0.2l0.1-0.1v0h0.1v0l0.1,0.1h0.1h0.1l0.1,0.1v0.1l0.1,0.1h0.2v-0.1v-0.1v0.1V38h0.2v0h0.1v0l0.1-0.1l0.1-0.1h0v-0.1   h0l-0.2-0.1l-0.1-0.5l0.3-0.3h0v-0.1v-0.1h0l-0.1-0.1l-0.1,0.1l-0.1,0.1v0.1v0.1h0v-0.1h-0.1l-0.1,0.1l-0.1,0.1l-0.2,0.1l-0.2-0.2   v-0.1v-0.1v-0.3l0.1-0.1h0.7l0.1-0.1l0.2,0l0.2,0.1v0.1l-0.1,0.1l0.1,0.1h0.1l0.3,0.2l0.1-0.2l0.2-0.3l0.1-0.1l0.1-0.2h0.1v-0.1   h-0.1h-0.1h-0.1v0.1v-0.1v0h0.1v-0.1h0v0.1h0.1h0.1h0.1v-0.1h0v0.1h0.1v0h-0.1h-0.1v0.1v0.1V36l0.1,0.1l0.2-0.1v-0.3l-0.1-0.1   l-0.1-0.1v-0.2h0.1h0.1l0.1-0.2l0.1-0.1c0.3-0.1,0.5-0.2,0.8-0.2l0.1-0.1l0.3-0.1l0.1-0.1h-0.1v0h0.1v-0.1v-0.1h0.1l0.1,0.2h0.2   l0.1-0.2v-0.5v-0.1l0.1-0.1h0.2h0.3h0.1v-0.1V33l0.3-0.2h-0.2h-0.1v0h0.1h0.2v-0.1h0v0.1h0.1h0.1h0.1h0.3v0l0.1-0.1l0.1-0.1   l0.2-0.3l0.1-0.1v-0.2v-0.3h0.1l0.1-0.1v-0.2v-0.1V31h-0.1h-0.1h-0.2h-0.1v0h0.1h0.2v-0.1h0V31h0.1h0.1v-0.1L119.6,30.7    M120.5,30.9l-0.1-0.1L120.5,30.9 M120.3,30.6L120.3,30.6v0.1v0.1v-0.1h-0.1v0.1h0v-0.1h0v0h0.1V30.6 M120.6,30.6L120.6,30.6V31   V30.6 M121.4,30.4L121.4,30.4v0.1V30.4 M121.4,30.4L121.4,30.4 M121.4,30.4l0.1-0.1L121.4,30.4 M121.5,30L121.5,30v0.1V30 M122,30   L122,30l0.4,0L122,30 M121.6,29.9L121.6,29.9V30V29.9 M121.7,29.7L121.7,29.7v0.1V29.7 M121.9,29.6L121.9,29.6l0,0.1h0V29.6z    M122,29.6h0.1v0L122,29.6L122,29.6z M122.3,29.4L122.3,29.4l0,0.1h0V29.4z M122.4,29.4L122.4,29.4v0.5v0.1h-0.1h0.1v-0.1V29.4    M122.4,29.2h0.1v0L122.4,29.2L122.4,29.2z M123.3,29.2h0.1v0L123.3,29.2l-0.1,0h-0.5v0h0.5H123.3 M123,28.9h0.1v0L123,28.9l-0.1,0   h-0.1V29h0v-0.1h0v0h0.1H123 M124.6,28.6L124.6,28.6v0.1V28.6 M123.2,28.4L123.2,28.4l0,0.1v0.1v0.1h0v-0.1v-0.1V28.4 M123.7,28.3   L123.7,28.3v0.1h-0.1v0.1v-0.1v0h0.1V28.3 M124.6,28.2L124.6,28.2v0.1V28.2 M124.6,28.2L124.6,28.2 M124.2,28.1h0.1v0L124.2,28.1   L124.2,28.1z M124.7,28.1h0.1v0L124.7,28.1l-0.1,0.1L124.7,28.1L124.7,28.1 M124.9,27.9L124.9,27.9l0,0.1h0V27.9z M124.6,27.8   L124.6,27.8v0.1V27.8 M124.8,27.9L124.8,27.9l0.1-0.1L124.8,27.9 M124.7,27.5L124.7,27.5v0.1V27.5 M125,27.4h-0.3l-0.1,0.1   l-0.1,0.2v0.1V28h0v-0.1v-0.1h-0.1l-0.1,0.1V28l-0.2,0.1l-0.5,0.1l-0.5,0.2H123l-0.1,0.2l-0.1,0.1l-0.1,0.1l-0.1,0.1h-0.1   c-0.2,0-0.2,0-0.2,0.2h-0.1l-0.1,0.1l-0.2,0.2l-0.1,0.2v0.1h-0.1l-0.1,0.1h-0.1h-0.2H121v0.1v0.1v0.1h0v-0.1h-0.1v0h0.1v-0.1V30   h-0.1l-0.1,0.2h-0.1l-0.5,0.3l-0.1,0.1v0.1h0l0.1,0.1v0h0.1v0h-0.1v0.1l0.1,0.1l0.2,0.4c0.1,0,0.1-0.1,0.2-0.4l0.8-0.6l0.1-0.2   l0.2-0.1c0-0.2,0.1-0.3,0.3-0.3c-0.1,0-0.3,0.1-0.3,0.3c0.3-0.1,0.5-0.2,0.8-0.2v-0.6c0.2,0,0.5-0.1,0.7-0.1h0.1h0v0l0.1-0.1   l0.1-0.1h0.1V29h-0.1l-0.1,0.1l0.1-0.1h0.1l0.1-0.1v0h0.1v-0.1v0.1h-0.1l-0.1,0.1v0.1h0.1l0.1-0.1l0.2-0.2h0.2h0.1v-0.1h-0.1H124   v0.1h0v-0.1h-0.1l-0.1,0.1c-0.4,0.1-0.4,0.1-0.6,0.3c0.2-0.3,0.2-0.3,0.6-0.3l0.1-0.1h0.1h0.3h0.1v0.1h0.1l0.1-0.2v-0.1l0.1-0.3   l0.1-0.1c0.2-0.1,0.3,0,0.2-0.2v-0.2L125,27.4"/>
	<path clip-path="url(#SVGID_2_)" fill="#1D1D1B" d="M20.1,84.4h-1.5v7.6c0,1.2-0.3,2.2-0.8,2.7c-0.5,0.6-1.3,0.9-2.5,0.9   c-1.1,0-1.9-0.3-2.5-0.9c-0.5-0.6-0.8-1.5-0.8-2.7v-7.6h-1.5v7.6c0,1.7,0.4,2.9,1.2,3.7c0.8,0.8,2,1.2,3.5,1.2   c1.6,0,2.8-0.4,3.6-1.2c0.8-0.8,1.2-2.1,1.2-3.7V84.4"/>
	<polygon clip-path="url(#SVGID_2_)" fill="#1D1D1B" points="24.7,83.9 24.7,96.7 26.1,96.7 26.1,87.5 35,97.2 35,84.4 33.6,84.4    33.6,93.8  "/>
	<rect x="39.7" y="84.4" clip-path="url(#SVGID_2_)" fill="#1D1D1B" width="1.4" height="12.3"/>
	<polygon clip-path="url(#SVGID_2_)" fill="#1D1D1B" points="54.5,84.4 52.9,84.4 49.4,93.8 45.8,84.4 44.2,84.4 49.4,97.2  "/>
	<polygon clip-path="url(#SVGID_2_)" fill="#1D1D1B" points="64,84.4 57.5,84.4 57.5,96.7 64,96.7 64,95.4 59,95.4 59,90.6 64,90.6    64,89.3 59,89.3 59,85.8 64,85.8  "/>
	<path clip-path="url(#SVGID_2_)" fill="#1D1D1B" d="M69.6,89.8v-4.1h1.1c1.1,0,1.9,0.2,2.3,0.5c0.4,0.3,0.6,0.9,0.6,1.7   c0,0.7-0.2,1.2-0.6,1.5c-0.4,0.3-1.1,0.4-2.3,0.4H69.6 M71.1,84.4h-2.9v12.3h1.4v-5.9h0.2l4.4,5.9h1.8l-4.7-5.9h0.3   c1.1,0,1.9-0.3,2.4-0.8c0.6-0.5,0.8-1.3,0.8-2.3c0-0.6-0.1-1.1-0.3-1.6c-0.2-0.5-0.5-0.9-0.8-1.1c-0.3-0.2-0.6-0.4-1-0.5   C72.5,84.5,71.9,84.4,71.1,84.4"/>
	<path clip-path="url(#SVGID_2_)" fill="#1D1D1B" d="M82.1,84.1c-1,0-1.8,0.3-2.5,0.9c-0.6,0.6-1,1.3-1,2.2c0,0.8,0.2,1.4,0.6,1.9   c0.4,0.5,1,1,1.8,1.3l1.5,0.6c0.6,0.3,1.1,0.6,1.4,1c0.3,0.4,0.5,0.9,0.5,1.4c0,0.7-0.2,1.2-0.7,1.6c-0.4,0.4-1,0.6-1.8,0.6   c-0.6,0-1.1-0.2-1.5-0.6c-0.4-0.4-0.7-0.9-0.9-1.7l-1.3,0.7c0.2,0.9,0.7,1.6,1.3,2.1c0.6,0.5,1.5,0.7,2.4,0.7c1.2,0,2.1-0.3,2.8-1   c0.7-0.7,1.1-1.6,1.1-2.7c0-0.8-0.2-1.4-0.6-2c-0.4-0.6-1-1-1.8-1.4l-1.7-0.8c-0.6-0.2-1-0.5-1.2-0.8c-0.3-0.3-0.4-0.7-0.4-1.1   c0-0.5,0.2-0.9,0.5-1.3c0.3-0.3,0.8-0.5,1.3-0.5c0.4,0,0.8,0.1,1.2,0.4c0.3,0.2,0.6,0.6,0.9,1.1l1.2-0.8c-0.3-0.6-0.7-1.1-1.3-1.4   C83.5,84.3,82.9,84.1,82.1,84.1"/>
	<rect x="89.7" y="84.4" clip-path="url(#SVGID_2_)" fill="#1D1D1B" width="1.5" height="12.3"/>
	<polygon clip-path="url(#SVGID_2_)" fill="#1D1D1B" points="102.9,84.4 94.5,84.4 94.5,85.8 98,85.8 98,96.7 99.4,96.7 99.4,85.8    102.9,85.8  "/>
	<polygon clip-path="url(#SVGID_2_)" fill="#1D1D1B" points="114.5,84.4 112.8,84.4 109.7,89.8 106.5,84.4 104.8,84.4 108.9,91.1    108.9,96.7 110.4,96.7 110.4,91.1  "/>
	<path clip-path="url(#SVGID_2_)" fill="#1D1D1B" d="M130.5,95.7c-0.7,0-1.3-0.1-1.9-0.4c-0.6-0.2-1.1-0.6-1.6-1.1   c-0.5-0.5-0.9-1-1.1-1.6c-0.2-0.6-0.4-1.2-0.4-1.9c0-0.7,0.1-1.3,0.4-2c0.2-0.6,0.6-1.2,1.1-1.6c0.5-0.5,1-0.9,1.6-1.1   c0.6-0.3,1.2-0.4,1.9-0.4c0.7,0,1.3,0.1,1.9,0.4c0.6,0.2,1.1,0.6,1.6,1.1c0.5,0.5,0.8,1,1.1,1.6c0.3,0.6,0.4,1.3,0.4,2   c0,0.7-0.1,1.3-0.4,1.9c-0.2,0.6-0.6,1.2-1.1,1.6c-0.5,0.5-1,0.9-1.6,1.1C131.8,95.5,131.2,95.7,130.5,95.7 M130.5,84.1   c-0.9,0-1.7,0.2-2.5,0.5c-0.8,0.3-1.5,0.8-2.1,1.4c-0.6,0.6-1.1,1.3-1.4,2.1c-0.3,0.8-0.5,1.6-0.5,2.5c0,0.9,0.2,1.7,0.5,2.5   c0.3,0.8,0.8,1.5,1.4,2.1c0.6,0.6,1.3,1.1,2.1,1.4c0.8,0.3,1.6,0.5,2.5,0.5c0.9,0,1.7-0.2,2.5-0.5c0.8-0.3,1.5-0.8,2.1-1.4   c0.6-0.6,1.1-1.3,1.4-2.1c0.3-0.8,0.5-1.6,0.5-2.5c0-0.9-0.2-1.7-0.5-2.5c-0.3-0.8-0.8-1.5-1.4-2.1c-0.6-0.6-1.3-1.1-2.1-1.4   C132.2,84.3,131.4,84.1,130.5,84.1"/>
	<polygon clip-path="url(#SVGID_2_)" fill="#1D1D1B" points="147.6,84.4 141.2,84.4 141.2,96.7 142.6,96.7 142.6,90.6 147.6,90.6    147.6,89.3 142.6,89.3 142.6,85.8 147.6,85.8  "/>
	<path clip-path="url(#SVGID_2_)" fill="#1D1D1B" d="M164.3,84.1c-0.9,0-1.7,0.2-2.5,0.5c-0.8,0.3-1.4,0.7-2.1,1.4   c-0.6,0.6-1.1,1.3-1.4,2.1c-0.3,0.8-0.5,1.6-0.5,2.6c0,1.1,0.2,2.1,0.7,3c0.5,0.9,1.2,1.7,2,2.3c0.5,0.4,1.1,0.6,1.7,0.8   c0.6,0.2,1.2,0.3,1.9,0.3c0.7,0,1.5-0.1,2.2-0.3c0.7-0.2,1.3-0.6,2-1v-1.9c-0.5,0.6-1.2,1.1-1.8,1.5c-0.7,0.3-1.4,0.5-2.2,0.5   c-0.8,0-1.6-0.2-2.3-0.6c-0.7-0.4-1.3-0.9-1.8-1.6c-0.3-0.4-0.5-0.8-0.6-1.3c-0.1-0.5-0.2-1-0.2-1.6c0-0.7,0.1-1.4,0.4-2   c0.2-0.6,0.6-1.1,1-1.6c0.4-0.5,1-0.8,1.6-1.1c0.6-0.3,1.2-0.4,1.9-0.4c0.8,0,1.5,0.2,2.2,0.5c0.7,0.3,1.3,0.8,1.9,1.4v-1.9   c-0.6-0.5-1.3-0.8-2-1C165.7,84.2,165,84.1,164.3,84.1"/>
	<path clip-path="url(#SVGID_2_)" fill="#1D1D1B" d="M178.5,95.7c-0.7,0-1.3-0.1-1.9-0.4c-0.6-0.2-1.1-0.6-1.6-1.1   c-0.5-0.5-0.8-1-1.1-1.6c-0.2-0.6-0.4-1.2-0.4-1.9c0-0.7,0.1-1.3,0.4-2c0.2-0.6,0.6-1.2,1.1-1.6c0.5-0.5,1-0.9,1.6-1.1   c0.6-0.3,1.2-0.4,1.9-0.4c0.7,0,1.3,0.1,1.9,0.4c0.6,0.2,1.1,0.6,1.6,1.1c0.5,0.5,0.8,1,1.1,1.6c0.3,0.6,0.4,1.3,0.4,2   c0,0.7-0.1,1.3-0.4,1.9c-0.2,0.6-0.6,1.2-1.1,1.6c-0.5,0.5-1,0.9-1.6,1.1C179.8,95.5,179.2,95.7,178.5,95.7 M178.5,84.1   c-0.9,0-1.7,0.2-2.5,0.5c-0.8,0.3-1.5,0.8-2.1,1.4c-0.6,0.6-1.1,1.3-1.4,2.1c-0.3,0.8-0.5,1.6-0.5,2.5c0,0.9,0.2,1.7,0.5,2.5   c0.3,0.8,0.8,1.5,1.4,2.1c0.6,0.6,1.3,1.1,2.1,1.4c0.8,0.3,1.6,0.5,2.5,0.5c0.9,0,1.7-0.2,2.5-0.5c0.8-0.3,1.5-0.8,2.1-1.4   c0.6-0.6,1.1-1.3,1.4-2.1c0.3-0.8,0.5-1.6,0.5-2.5c0-0.9-0.2-1.7-0.5-2.5c-0.3-0.8-0.8-1.5-1.4-2.1c-0.6-0.6-1.3-1.1-2.1-1.4   C180.2,84.3,179.4,84.1,178.5,84.1"/>
	<path clip-path="url(#SVGID_2_)" fill="#1D1D1B" d="M195.1,95.7c-0.7,0-1.3-0.1-1.9-0.4c-0.6-0.2-1.1-0.6-1.6-1.1   c-0.5-0.5-0.8-1-1.1-1.6c-0.2-0.6-0.4-1.2-0.4-1.9c0-0.7,0.1-1.3,0.4-2c0.3-0.6,0.6-1.2,1.1-1.6c0.5-0.5,1-0.9,1.6-1.1   c0.6-0.3,1.2-0.4,1.9-0.4c0.7,0,1.3,0.1,1.9,0.4c0.6,0.2,1.1,0.6,1.6,1.1c0.5,0.5,0.8,1,1.1,1.6c0.3,0.6,0.4,1.3,0.4,2   c0,0.7-0.1,1.3-0.4,1.9c-0.3,0.6-0.6,1.2-1.1,1.6c-0.5,0.5-1,0.9-1.6,1.1C196.4,95.5,195.8,95.7,195.1,95.7 M195.1,84.1   c-0.9,0-1.7,0.2-2.5,0.5c-0.8,0.3-1.5,0.8-2.1,1.4c-0.6,0.6-1.1,1.3-1.4,2.1c-0.3,0.8-0.5,1.6-0.5,2.5c0,0.9,0.2,1.7,0.5,2.5   c0.3,0.8,0.8,1.5,1.4,2.1c0.6,0.6,1.3,1.1,2.1,1.4c0.8,0.3,1.6,0.5,2.5,0.5c0.9,0,1.7-0.2,2.5-0.5c0.8-0.3,1.5-0.8,2.1-1.4   c0.6-0.6,1.1-1.3,1.4-2.1c0.3-0.8,0.5-1.6,0.5-2.5c0-0.9-0.2-1.7-0.5-2.5c-0.3-0.8-0.8-1.5-1.4-2.1c-0.6-0.6-1.3-1.1-2.1-1.4   C196.8,84.3,196,84.1,195.1,84.1"/>
	<path clip-path="url(#SVGID_2_)" fill="#1D1D1B" d="M207.2,89.9v-4.1h0.7c1.2,0,2.1,0.2,2.5,0.5c0.4,0.3,0.7,0.9,0.7,1.7   c0,0.7-0.2,1.2-0.6,1.5c-0.4,0.3-1.3,0.4-2.5,0.4H207.2 M208.3,84.4h-2.6v12.3h1.4v-5.5h0.7h0.4c0.9,0,1.6,0,2-0.1   c0.4-0.1,0.8-0.3,1.1-0.5c0.4-0.3,0.7-0.7,0.9-1.2c0.2-0.5,0.3-1,0.3-1.6c0-0.6-0.1-1.1-0.3-1.6c-0.2-0.5-0.5-0.9-0.9-1.1   c-0.3-0.2-0.7-0.4-1.1-0.5C209.9,84.5,209.2,84.4,208.3,84.4"/>
	<polygon clip-path="url(#SVGID_2_)" fill="#1D1D1B" points="222.6,84.4 216.2,84.4 216.2,96.7 222.6,96.7 222.6,95.4 217.6,95.4    217.6,90.6 222.6,90.6 222.6,89.3 217.6,89.3 217.6,85.8 222.6,85.8  "/>
	<path clip-path="url(#SVGID_2_)" fill="#1D1D1B" d="M228.3,89.8v-4.1h1.1c1.1,0,1.9,0.2,2.3,0.5c0.4,0.3,0.6,0.9,0.6,1.7   c0,0.7-0.2,1.2-0.6,1.5c-0.4,0.3-1.1,0.4-2.3,0.4H228.3 M229.7,84.4h-2.9v12.3h1.4v-5.9h0.2l4.4,5.9h1.8l-4.7-5.9h0.3   c1.1,0,1.9-0.3,2.5-0.8c0.6-0.5,0.8-1.3,0.8-2.3c0-0.6-0.1-1.1-0.3-1.6c-0.2-0.5-0.5-0.9-0.8-1.1c-0.3-0.2-0.6-0.4-1-0.5   C231.1,84.5,230.5,84.4,229.7,84.4"/>
	<path clip-path="url(#SVGID_2_)" fill="#1D1D1B" d="M239.7,91.7l1.9-4.5l1.9,4.5H239.7z M241.6,83.9l-5.5,12.8h1.6l1.6-3.8h4.8   l1.6,3.8h1.6L241.6,83.9"/>
	<polygon clip-path="url(#SVGID_2_)" fill="#1D1D1B" points="256.3,84.4 247.9,84.4 247.9,85.8 251.4,85.8 251.4,96.7 252.8,96.7    252.8,85.8 256.3,85.8  "/>
	<rect x="259.7" y="84.4" clip-path="url(#SVGID_2_)" fill="#1D1D1B" width="1.5" height="12.3"/>
	<polygon clip-path="url(#SVGID_2_)" fill="#1D1D1B" points="274.5,84.4 272.9,84.4 269.3,93.8 265.7,84.4 264.2,84.4 269.3,97.2     "/>
	<polygon clip-path="url(#SVGID_2_)" fill="#1D1D1B" points="283.9,84.4 277.5,84.4 277.5,96.7 283.9,96.7 283.9,95.4 279,95.4    279,90.6 283.9,90.6 283.9,89.3 279,89.3 279,85.8 283.9,85.8  "/>
	<polygon clip-path="url(#SVGID_2_)" fill="#1D1D1B" points="301.4,84.4 295,84.4 295,96.7 301.4,96.7 301.4,95.4 296.4,95.4    296.4,90.6 301.4,90.6 301.4,89.3 296.4,89.3 296.4,85.8 301.4,85.8  "/>
	<path clip-path="url(#SVGID_2_)" fill="#1D1D1B" d="M307.1,95.3v-9.6h0.9c1.5,0,2.5,0.1,3.1,0.2c0.6,0.1,1.1,0.4,1.5,0.7   c0.5,0.4,0.9,1,1.1,1.6c0.3,0.6,0.4,1.4,0.4,2.3c0,0.9-0.1,1.6-0.4,2.3c-0.3,0.7-0.6,1.2-1.1,1.6c-0.4,0.3-0.9,0.5-1.4,0.7   c-0.6,0.1-1.6,0.2-3.1,0.2H307.1 M308,84.4h-2.3v12.3h2.3h0.5c1.4,0,2.5-0.1,3.2-0.3c0.7-0.2,1.3-0.5,1.8-0.9   c0.7-0.5,1.2-1.2,1.6-2.1c0.4-0.8,0.5-1.8,0.5-2.9c0-1.1-0.2-2.1-0.5-2.9c-0.4-0.8-0.9-1.5-1.6-2.1c-0.5-0.4-1.2-0.7-1.9-0.9   C310.9,84.5,309.7,84.4,308,84.4"/>
	<path clip-path="url(#SVGID_2_)" fill="#1D1D1B" d="M329.2,84.4h-1.5v7.6c0,1.2-0.3,2.2-0.8,2.7c-0.5,0.6-1.3,0.9-2.5,0.9   c-1.1,0-1.9-0.3-2.5-0.9c-0.5-0.6-0.8-1.5-0.8-2.7v-7.6h-1.5v7.6c0,1.7,0.4,2.9,1.2,3.7c0.8,0.8,2,1.2,3.5,1.2   c1.6,0,2.8-0.4,3.6-1.2c0.8-0.8,1.2-2.1,1.2-3.7V84.4"/>
	<path clip-path="url(#SVGID_2_)" fill="#1D1D1B" d="M339.7,84.1c-0.9,0-1.7,0.2-2.5,0.5c-0.8,0.3-1.4,0.7-2.1,1.4   c-0.6,0.6-1.1,1.3-1.4,2.1c-0.3,0.8-0.5,1.6-0.5,2.6c0,1.1,0.2,2.1,0.7,3c0.5,0.9,1.1,1.7,2,2.3c0.5,0.4,1.1,0.6,1.7,0.8   c0.6,0.2,1.2,0.3,1.9,0.3c0.7,0,1.5-0.1,2.2-0.3c0.7-0.2,1.3-0.6,2-1v-1.9c-0.5,0.6-1.2,1.1-1.8,1.5c-0.7,0.3-1.4,0.5-2.2,0.5   c-0.8,0-1.6-0.2-2.3-0.6c-0.7-0.4-1.3-0.9-1.8-1.6c-0.3-0.4-0.5-0.8-0.6-1.3c-0.1-0.5-0.2-1-0.2-1.6c0-0.7,0.1-1.4,0.3-2   c0.2-0.6,0.6-1.1,1.1-1.6c0.5-0.5,1-0.8,1.6-1.1c0.6-0.3,1.2-0.4,1.9-0.4c0.8,0,1.5,0.2,2.2,0.5c0.7,0.3,1.3,0.8,1.9,1.4v-1.9   c-0.6-0.5-1.3-0.8-2-1C341.1,84.2,340.4,84.1,339.7,84.1"/>
	<path clip-path="url(#SVGID_2_)" fill="#1D1D1B" d="M349.9,91.7l1.9-4.5l1.9,4.5H349.9z M351.8,83.9l-5.5,12.8h1.6l1.6-3.8h4.8   l1.6,3.8h1.6L351.8,83.9"/>
	<polygon clip-path="url(#SVGID_2_)" fill="#1D1D1B" points="366.5,84.4 358.1,84.4 358.1,85.8 361.6,85.8 361.6,96.7 363.1,96.7    363.1,85.8 366.5,85.8  "/>
	<rect x="369.9" y="84.4" clip-path="url(#SVGID_2_)" fill="#1D1D1B" width="1.5" height="12.3"/>
	<path clip-path="url(#SVGID_2_)" fill="#1D1D1B" d="M382,95.7c-0.7,0-1.3-0.1-1.9-0.4c-0.6-0.2-1.1-0.6-1.6-1.1   c-0.5-0.5-0.9-1-1.1-1.6c-0.2-0.6-0.4-1.2-0.4-1.9c0-0.7,0.1-1.3,0.4-2c0.2-0.6,0.6-1.2,1.1-1.6c0.5-0.5,1-0.9,1.6-1.1   c0.6-0.3,1.2-0.4,1.9-0.4c0.7,0,1.3,0.1,1.9,0.4c0.6,0.2,1.1,0.6,1.6,1.1c0.5,0.5,0.8,1,1.1,1.6c0.3,0.6,0.4,1.3,0.4,2   c0,0.7-0.1,1.3-0.4,1.9c-0.2,0.6-0.6,1.2-1.1,1.6c-0.5,0.5-1,0.9-1.6,1.1C383.3,95.5,382.7,95.7,382,95.7 M382,84.1   c-0.9,0-1.7,0.2-2.5,0.5c-0.8,0.3-1.5,0.8-2.1,1.4c-0.6,0.6-1.1,1.3-1.4,2.1c-0.3,0.8-0.5,1.6-0.5,2.5c0,0.9,0.2,1.7,0.5,2.5   c0.3,0.8,0.8,1.5,1.4,2.1c0.6,0.6,1.3,1.1,2.1,1.4c0.8,0.3,1.6,0.5,2.5,0.5s1.7-0.2,2.5-0.5c0.8-0.3,1.5-0.8,2.1-1.4   c0.6-0.6,1.1-1.3,1.4-2.1c0.3-0.8,0.5-1.6,0.5-2.5c0-0.9-0.2-1.7-0.5-2.5c-0.3-0.8-0.8-1.5-1.4-2.1c-0.6-0.6-1.3-1.1-2.1-1.4   C383.7,84.3,382.9,84.1,382,84.1"/>
	<polygon clip-path="url(#SVGID_2_)" fill="#1D1D1B" points="392.7,83.9 392.7,96.7 394,96.7 394,87.5 403,97.2 403,84.4    401.6,84.4 401.6,93.8  "/>
	<path clip-path="url(#SVGID_2_)" fill="#929191" d="M140.4,28.8v-4.6h1.2h0.4c0.6,0,1,0,1.2,0.1c0.3,0.1,0.5,0.1,0.7,0.3   c0.3,0.2,0.6,0.5,0.8,0.8c0.2,0.3,0.3,0.7,0.3,1.2c0,0.4-0.1,0.8-0.2,1.1c-0.1,0.3-0.4,0.6-0.6,0.8c-0.2,0.2-0.5,0.3-0.9,0.3   c-0.4,0.1-0.9,0.1-1.7,0.1H140.4 M140.4,23.1v-4.2h1.2c1.1,0,1.9,0.2,2.3,0.5c0.4,0.3,0.6,0.9,0.6,1.7c0,0.7-0.2,1.3-0.7,1.6   c-0.4,0.3-1.2,0.5-2.3,0.5H140.4 M141.6,17.6h-2.7v12.6h2.7c1.2,0,2.1-0.1,2.7-0.2c0.5-0.1,1-0.4,1.3-0.7c0.3-0.3,0.6-0.7,0.8-1.2   c0.2-0.5,0.3-0.9,0.3-1.4c0-0.8-0.2-1.5-0.7-2.1c-0.4-0.6-1-0.9-1.8-1c0.6-0.2,1.1-0.5,1.4-0.9c0.3-0.4,0.5-1,0.5-1.7   c0-0.6-0.1-1.1-0.3-1.5c-0.2-0.5-0.5-0.9-0.9-1.1c-0.3-0.2-0.7-0.4-1.1-0.5C143.2,17.6,142.5,17.6,141.6,17.6"/>
	<polygon clip-path="url(#SVGID_2_)" fill="#929191" points="157.6,17.6 150.9,17.6 150.9,30.1 157.6,30.1 157.6,28.7 152.4,28.7    152.4,23.9 157.6,23.9 157.6,22.5 152.4,22.5 152.4,18.9 157.6,18.9  "/>
	<path clip-path="url(#SVGID_2_)" fill="#929191" d="M163.5,23v-4.2h1.2c1.2,0,1.9,0.2,2.4,0.5c0.4,0.3,0.6,0.9,0.6,1.7   c0,0.8-0.2,1.3-0.6,1.6c-0.4,0.3-1.2,0.5-2.4,0.5H163.5 M165.1,17.6h-3v12.6h1.5v-6h0.2l4.6,6h1.9l-4.9-6h0.3c1.1,0,2-0.3,2.6-0.8   c0.6-0.5,0.9-1.3,0.9-2.3c0-0.6-0.1-1.1-0.3-1.6c-0.2-0.5-0.5-0.9-0.9-1.2c-0.3-0.2-0.7-0.4-1-0.5   C166.5,17.6,165.9,17.6,165.1,17.6"/>
	<path clip-path="url(#SVGID_2_)" fill="#929191" d="M183.3,17.6h-1.5v7.8c0,1.3-0.3,2.2-0.8,2.8c-0.5,0.6-1.4,0.9-2.6,0.9   c-1.2,0-2-0.3-2.6-0.9c-0.5-0.6-0.8-1.5-0.8-2.8v-7.8h-1.5v7.8c0,1.7,0.4,3,1.2,3.8c0.8,0.9,2.1,1.3,3.7,1.3c1.6,0,2.9-0.4,3.7-1.3   c0.8-0.8,1.2-2.1,1.2-3.8V17.6"/>
	<polygon clip-path="url(#SVGID_2_)" fill="#929191" points="195,17.6 188.3,17.6 188.3,30.1 189.8,30.1 189.8,23.9 195,23.9    195,22.5 189.8,22.5 189.8,18.9 195,18.9  "/>
	<path clip-path="url(#SVGID_2_)" fill="#929191" d="M202.4,17.3c-1,0-1.9,0.3-2.6,0.9c-0.7,0.6-1,1.3-1,2.2c0,0.8,0.2,1.4,0.6,2   c0.4,0.6,1,1,1.9,1.4l1.5,0.7c0.7,0.3,1.2,0.6,1.5,1c0.3,0.4,0.5,0.9,0.5,1.5c0,0.7-0.2,1.3-0.7,1.7c-0.5,0.4-1.1,0.6-1.8,0.6   c-0.6,0-1.2-0.2-1.6-0.6c-0.4-0.4-0.7-1-0.9-1.7l-1.4,0.7c0.2,0.9,0.7,1.7,1.4,2.2c0.7,0.5,1.5,0.8,2.5,0.8c1.2,0,2.2-0.4,3-1.1   c0.7-0.7,1.1-1.6,1.1-2.8c0-0.8-0.2-1.5-0.6-2.1c-0.4-0.6-1-1-1.9-1.4l-1.8-0.8c-0.6-0.3-1-0.5-1.3-0.9c-0.3-0.3-0.4-0.7-0.4-1.2   c0-0.5,0.2-1,0.5-1.3c0.4-0.3,0.8-0.5,1.4-0.5c0.4,0,0.8,0.1,1.2,0.4c0.4,0.2,0.7,0.6,1,1.1l1.3-0.8c-0.3-0.6-0.7-1.1-1.3-1.4   C203.8,17.4,203.1,17.3,202.4,17.3"/>
	<path clip-path="url(#SVGID_2_)" fill="#929191" d="M212.3,25l2-4.6l2,4.6H212.3z M214.3,17.1l-5.8,13.1h1.6l1.6-3.9h5l1.6,3.9h1.6   L214.3,17.1"/>
	<polygon clip-path="url(#SVGID_2_)" fill="#929191" points="232,17.6 230.2,17.6 224.8,23.1 224.8,17.6 223.3,17.6 223.3,30.1    224.8,30.1 224.8,23.4 230.5,30.1 232.5,30.1 226.5,23.2  "/>
	<path clip-path="url(#SVGID_2_)" fill="#929191" d="M237.8,25l2-4.6l2,4.6H237.8z M239.8,17.1L234,30.1h1.6l1.6-3.9h5l1.6,3.9h1.6   L239.8,17.1"/>
	<path clip-path="url(#SVGID_2_)" fill="#929191" d="M250.3,28.7v-9.8h1c1.5,0,2.6,0.1,3.2,0.2c0.6,0.1,1.1,0.4,1.5,0.7   c0.5,0.4,0.9,1,1.2,1.7c0.3,0.7,0.4,1.4,0.4,2.3c0,0.9-0.1,1.7-0.4,2.3c-0.3,0.7-0.7,1.2-1.2,1.7c-0.4,0.3-0.9,0.6-1.5,0.7   c-0.6,0.1-1.7,0.2-3.3,0.2H250.3 M251.2,17.6h-2.4v12.6h2.4h0.5c1.5,0,2.6-0.1,3.3-0.3c0.7-0.2,1.3-0.5,1.9-0.9   c0.7-0.6,1.3-1.3,1.7-2.1c0.4-0.9,0.6-1.9,0.6-3c0-1.1-0.2-2.1-0.6-3c-0.4-0.9-0.9-1.6-1.7-2.1c-0.6-0.4-1.2-0.7-1.9-0.9   C254.3,17.6,253.1,17.6,251.2,17.6"/>
	<polygon clip-path="url(#SVGID_2_)" fill="#929191" points="270.3,17.6 263.6,17.6 263.6,30.1 270.3,30.1 270.3,28.7 265.1,28.7    265.1,23.9 270.3,23.9 270.3,22.5 265.1,22.5 265.1,18.9 270.3,18.9  "/>
	<polygon clip-path="url(#SVGID_2_)" fill="#929191" points="285.2,17.1 280.8,27.5 276.3,17.1 273.7,30.1 275.2,30.1 276.8,21.6    280.8,30.6 284.7,21.6 286.3,30.1 287.8,30.1  "/>
	<rect x="291.7" y="17.6" clip-path="url(#SVGID_2_)" fill="#929191" width="1.5" height="12.6"/>
	<polygon clip-path="url(#SVGID_2_)" fill="#929191" points="304.9,17.6 298.2,17.6 298.2,30.1 304.9,30.1 304.9,28.7 299.7,28.7    299.7,23.9 304.9,23.9 304.9,22.5 299.7,22.5 299.7,18.9 304.9,18.9  "/>
	<path clip-path="url(#SVGID_2_)" fill="#929191" d="M319.7,17.3c-1,0-1.9,0.3-2.6,0.9c-0.7,0.6-1,1.3-1,2.2c0,0.8,0.2,1.4,0.6,2   c0.4,0.6,1,1,1.9,1.4l1.5,0.7c0.7,0.3,1.2,0.6,1.5,1c0.3,0.4,0.5,0.9,0.5,1.5c0,0.7-0.2,1.3-0.7,1.7c-0.5,0.4-1.1,0.6-1.8,0.6   c-0.6,0-1.2-0.2-1.6-0.6c-0.4-0.4-0.7-1-0.9-1.7l-1.4,0.7c0.2,0.9,0.7,1.7,1.4,2.2c0.7,0.5,1.5,0.8,2.5,0.8c1.2,0,2.2-0.4,3-1.1   c0.7-0.7,1.1-1.6,1.1-2.8c0-0.8-0.2-1.5-0.6-2.1c-0.4-0.6-1-1-1.9-1.4l-1.8-0.8c-0.6-0.3-1-0.5-1.3-0.9c-0.3-0.3-0.4-0.7-0.4-1.2   c0-0.5,0.2-1,0.5-1.3c0.4-0.3,0.8-0.5,1.4-0.5c0.5,0,0.9,0.1,1.2,0.4c0.4,0.2,0.7,0.6,1,1.1l1.2-0.8c-0.3-0.6-0.7-1.1-1.3-1.4   C321.1,17.4,320.5,17.3,319.7,17.3"/>
	<path clip-path="url(#SVGID_2_)" fill="#929191" d="M329.6,25l2-4.6l2,4.6H329.6z M331.6,17.1l-5.8,13.1h1.6l1.7-3.9h5l1.7,3.9h1.6   L331.6,17.1"/>
	<path clip-path="url(#SVGID_2_)" fill="#929191" d="M346.5,17.3c-0.9,0-1.8,0.2-2.6,0.5c-0.8,0.3-1.5,0.8-2.2,1.4   c-0.7,0.6-1.2,1.4-1.5,2.2c-0.3,0.8-0.5,1.7-0.5,2.6c0,1.1,0.2,2.1,0.7,3.1c0.5,0.9,1.2,1.7,2.1,2.3c0.6,0.4,1.2,0.7,1.8,0.9   c0.6,0.2,1.3,0.3,2,0.3c0.8,0,1.5-0.1,2.3-0.3c0.7-0.2,1.4-0.6,2-1v-2c-0.6,0.7-1.2,1.2-1.9,1.5c-0.7,0.3-1.4,0.5-2.3,0.5   c-0.9,0-1.7-0.2-2.4-0.6c-0.7-0.4-1.4-0.9-1.9-1.7c-0.3-0.4-0.5-0.9-0.7-1.4c-0.1-0.5-0.2-1-0.2-1.6c0-0.7,0.1-1.4,0.4-2   c0.2-0.6,0.6-1.2,1.1-1.7c0.5-0.5,1-0.9,1.7-1.1c0.6-0.3,1.3-0.4,2-0.4c0.8,0,1.6,0.2,2.3,0.5c0.7,0.3,1.3,0.8,1.9,1.4v-2   c-0.7-0.5-1.4-0.8-2-1C348,17.4,347.2,17.3,346.5,17.3"/>
	<polygon clip-path="url(#SVGID_2_)" fill="#929191" points="365,17.6 363.5,17.6 363.5,22.4 356.7,22.4 356.7,17.6 355.2,17.6    355.2,30.1 356.7,30.1 356.7,23.8 363.5,23.8 363.5,30.1 365,30.1  "/>
	<path clip-path="url(#SVGID_2_)" fill="#929191" d="M373.1,17.3c-1,0-1.9,0.3-2.6,0.9c-0.7,0.6-1,1.3-1,2.2c0,0.8,0.2,1.4,0.6,2   c0.4,0.6,1,1,1.9,1.4l1.5,0.7c0.7,0.3,1.2,0.6,1.5,1c0.3,0.4,0.5,0.9,0.5,1.5c0,0.7-0.2,1.3-0.7,1.7s-1.1,0.6-1.8,0.6   c-0.6,0-1.2-0.2-1.6-0.6c-0.4-0.4-0.7-1-0.9-1.7l-1.4,0.7c0.2,0.9,0.7,1.7,1.4,2.2c0.7,0.5,1.5,0.8,2.5,0.8c1.2,0,2.2-0.4,3-1.1   c0.7-0.7,1.1-1.6,1.1-2.8c0-0.8-0.2-1.5-0.6-2.1c-0.4-0.6-1-1-1.9-1.4l-1.8-0.8c-0.6-0.3-1-0.5-1.3-0.9c-0.3-0.3-0.4-0.7-0.4-1.2   c0-0.5,0.2-1,0.5-1.3c0.4-0.3,0.8-0.5,1.4-0.5c0.4,0,0.8,0.1,1.2,0.4c0.4,0.2,0.7,0.6,1,1.1l1.2-0.8c-0.3-0.6-0.7-1.1-1.3-1.4   C374.5,17.4,373.9,17.3,373.1,17.3"/>
	<polygon clip-path="url(#SVGID_2_)" fill="#929191" points="387.7,17.6 381,17.6 381,30.1 387.7,30.1 387.7,28.7 382.5,28.7    382.5,23.9 387.7,23.9 387.7,22.5 382.5,22.5 382.5,18.9 387.7,18.9  "/>
	<polygon clip-path="url(#SVGID_2_)" fill="#929191" points="392.2,17.1 392.2,30.1 393.7,30.1 393.7,20.7 403,30.6 403,17.6    401.5,17.6 401.5,27.1  "/>
	<path clip-path="url(#SVGID_2_)" fill="#929191" d="M141.5,36.1c-0.4,0-0.8,0.1-1.1,0.2c-0.4,0.1-0.7,0.3-0.9,0.6   c-0.3,0.3-0.5,0.6-0.6,0.9c-0.2,0.3-0.2,0.7-0.2,1.1c0,0.7,0.2,1.2,0.5,1.6c0.3,0.4,0.7,0.7,1.3,1c0.3,0.1,0.6,0.3,1,0.4   c0.4,0.2,0.7,0.3,1,0.4c0.4,0.2,0.8,0.4,1,0.8c0.2,0.3,0.3,0.7,0.3,1.1c0,0.3,0,0.5-0.1,0.7c-0.1,0.2-0.2,0.4-0.3,0.5   c-0.1,0.2-0.3,0.3-0.6,0.4c-0.2,0.1-0.5,0.1-0.8,0.1c-0.4,0-0.8-0.1-1.1-0.2c-0.3-0.2-0.6-0.4-0.8-0.7c-0.2-0.3-0.5-0.6-0.6-1   c-0.2-0.3-0.3-0.7-0.4-1.2h-0.6l0.1,3.5h0.5l0.3-0.5c0.3,0.2,0.7,0.4,1.1,0.5c0.4,0.1,0.9,0.2,1.3,0.2c0.9,0,1.7-0.3,2.4-0.9   c0.6-0.6,0.9-1.3,0.9-2.2c0-0.4-0.1-0.7-0.1-1c-0.1-0.3-0.2-0.5-0.5-0.8c-0.2-0.2-0.4-0.4-0.7-0.5c-0.3-0.2-0.5-0.3-0.8-0.4   c-0.3-0.1-0.6-0.3-0.9-0.4c-0.3-0.1-0.6-0.3-1-0.4c-0.4-0.2-0.7-0.4-0.9-0.7c-0.2-0.3-0.3-0.6-0.3-1.1c0-0.4,0.2-0.8,0.5-1.1   c0.3-0.3,0.7-0.4,1.1-0.4c0.4,0,0.8,0.1,1,0.2c0.3,0.2,0.5,0.4,0.7,0.7c0.2,0.3,0.4,0.6,0.5,1c0.1,0.4,0.2,0.7,0.3,1.1h0.6   l-0.1-3.3H144l-0.3,0.5c-0.3-0.2-0.6-0.4-1-0.5C142.4,36.2,142,36.1,141.5,36.1"/>
	<path clip-path="url(#SVGID_2_)" fill="#929191" d="M155.5,36.3h-8.5v2.7h0.5c0-0.2,0.1-0.4,0.2-0.6c0.1-0.2,0.2-0.5,0.4-0.7   c0.1-0.2,0.3-0.4,0.4-0.6l0.5-0.3c0.2,0,0.4,0,0.6,0c0.2,0,0.4,0,0.5,0h0.4V45c0,0.2,0,0.3-0.1,0.5l-0.3,0.3   c-0.1,0-0.3,0.1-0.5,0.1c-0.3,0-0.5,0.1-0.6,0.1v0.5h4.6v-0.5c-0.1,0-0.4,0-0.6-0.1c-0.3-0.1-0.4-0.1-0.5-0.1l-0.3-0.3l-0.1-0.4   v-8.1h0.4c0.2,0,0.4,0,0.6,0c0.2,0,0.4,0,0.5,0l0.5,0.3c0.2,0.2,0.3,0.4,0.5,0.6c0.1,0.2,0.3,0.4,0.4,0.7c0.1,0.2,0.2,0.4,0.2,0.6   h0.5V36.3"/>
	<path clip-path="url(#SVGID_2_)" fill="#929191" d="M160,42.3l1.4-3.9l1.5,3.9H160 M162.1,36.2h-0.5c-0.5,1.2-1,2.6-1.6,4.2   c-0.6,1.6-1.1,3-1.6,4.3c-0.1,0.2-0.2,0.4-0.3,0.6l-0.4,0.4l-0.4,0.2l-0.4,0.1v0.5h3.7v-0.5c-0.4,0-0.7-0.1-1-0.2   c-0.3-0.1-0.4-0.3-0.4-0.4l0-0.3c0-0.1,0.1-0.3,0.1-0.5c0.1-0.2,0.1-0.4,0.2-0.7c0.1-0.2,0.2-0.5,0.3-0.9h3.4l0.8,2.3l0,0.2l0,0.2   c0,0.1-0.1,0.2-0.4,0.3c-0.2,0.1-0.5,0.1-0.9,0.1v0.5h4v-0.5l-0.4-0.1l-0.4-0.2l-0.4-0.3l-0.2-0.4L162.1,36.2"/>
	<path clip-path="url(#SVGID_2_)" fill="#929191" d="M170.8,42.3l1.4-3.9l1.5,3.9H170.8 M173,36.2h-0.5c-0.5,1.2-1,2.6-1.6,4.2   c-0.6,1.6-1.1,3-1.6,4.3c-0.1,0.2-0.2,0.4-0.3,0.6l-0.4,0.4l-0.4,0.2l-0.4,0.1v0.5h3.7v-0.5c-0.4,0-0.7-0.1-1-0.2   c-0.3-0.1-0.4-0.3-0.4-0.4l0-0.3c0-0.1,0.1-0.3,0.1-0.5c0.1-0.2,0.1-0.4,0.2-0.7c0.1-0.2,0.2-0.5,0.3-0.9h3.4l0.8,2.3l0,0.2l0,0.2   c0,0.1-0.1,0.2-0.4,0.3c-0.2,0.1-0.5,0.1-0.9,0.1v0.5h4v-0.5l-0.4-0.1l-0.4-0.2l-0.4-0.3l-0.2-0.4L173,36.2"/>
	<path clip-path="url(#SVGID_2_)" fill="#929191" d="M187.3,36.3h-8.5v2.7h0.5c0-0.2,0.1-0.4,0.2-0.6c0.1-0.2,0.2-0.5,0.4-0.7   c0.1-0.2,0.3-0.4,0.4-0.6l0.5-0.3c0.2,0,0.4,0,0.6,0c0.2,0,0.4,0,0.5,0h0.4V45c0,0.2,0,0.3-0.1,0.5l-0.3,0.3   c-0.1,0-0.3,0.1-0.5,0.1c-0.3,0-0.5,0.1-0.6,0.1v0.5h4.6v-0.5c-0.1,0-0.3,0-0.6-0.1c-0.3-0.1-0.4-0.1-0.5-0.1l-0.3-0.3l-0.1-0.4   v-8.1h0.4c0.2,0,0.4,0,0.6,0c0.2,0,0.4,0,0.5,0l0.5,0.3c0.2,0.2,0.3,0.4,0.4,0.6c0.1,0.2,0.3,0.4,0.4,0.7c0.1,0.2,0.2,0.4,0.2,0.6   h0.5V36.3"/>
	<path clip-path="url(#SVGID_2_)" fill="#929191" d="M193.7,36.3h-4.1v0.5l0.5,0.1l0.4,0.2l0.3,0.3l0.1,0.4V45l-0.1,0.5l-0.3,0.3   c-0.1,0-0.2,0.1-0.4,0.1c-0.2,0-0.4,0-0.5,0.1v0.5h7.6l0.2-3h-0.5c-0.1,0.3-0.3,0.6-0.5,1.1c-0.2,0.4-0.5,0.8-0.6,1l-0.3,0.2   l-0.4,0.1l-0.5,0.1l-0.5,0c-0.4,0-0.7,0-0.9,0c-0.2,0-0.4-0.1-0.5-0.2l-0.2-0.4c0-0.2,0-0.4,0-0.7v-6.8l0.1-0.4l0.3-0.3   c0.1,0,0.2-0.1,0.4-0.1c0.2,0,0.4-0.1,0.5-0.1V36.3"/>
	<path clip-path="url(#SVGID_2_)" fill="#929191" d="M203.7,36.3h-4.4v0.5c0.1,0,0.3,0,0.5,0.1c0.2,0,0.4,0.1,0.5,0.2l0.4,0.3   l0.1,0.4v7.3l-0.1,0.4l-0.3,0.3c-0.1,0-0.3,0.1-0.5,0.1c-0.2,0-0.4,0-0.5,0v0.5h4.4v-0.5c-0.2,0-0.3,0-0.6-0.1   c-0.2,0-0.4-0.1-0.5-0.1l-0.3-0.3l-0.1-0.4v-7.3l0.1-0.4l0.3-0.3c0.1,0,0.3-0.1,0.5-0.1c0.2,0,0.4,0,0.5-0.1V36.3"/>
	<path clip-path="url(#SVGID_2_)" fill="#929191" d="M210.9,36.1c-0.6,0-1.2,0.1-1.8,0.4s-1.1,0.6-1.5,1.1c-0.4,0.5-0.7,1-1,1.7   c-0.2,0.7-0.4,1.4-0.4,2.2c0,0.8,0.1,1.5,0.4,2.2c0.2,0.6,0.6,1.2,1,1.6c0.4,0.4,0.9,0.8,1.4,1c0.5,0.2,1.1,0.4,1.7,0.4   c0.9,0,1.7-0.2,2.3-0.6c0.6-0.4,1.2-1.1,1.6-2.1l-0.5-0.3c-0.1,0.3-0.3,0.6-0.4,0.9c-0.2,0.3-0.4,0.5-0.6,0.7   c-0.2,0.2-0.5,0.4-0.8,0.5c-0.3,0.1-0.6,0.2-1,0.2c-0.5,0-0.9-0.1-1.3-0.3c-0.4-0.2-0.7-0.5-1-0.9c-0.3-0.4-0.5-0.9-0.7-1.4   c-0.2-0.5-0.2-1.1-0.2-1.8c0-0.7,0.1-1.4,0.2-2c0.2-0.6,0.4-1.1,0.6-1.5c0.3-0.4,0.6-0.7,1-0.9c0.4-0.2,0.8-0.3,1.2-0.3   c0.4,0,0.7,0.1,1,0.3c0.3,0.2,0.6,0.4,0.8,0.8c0.2,0.3,0.4,0.6,0.5,1c0.1,0.4,0.3,0.8,0.3,1.1h0.6l-0.1-3.6h-0.5l-0.3,0.5   c-0.3-0.2-0.7-0.4-1.1-0.5C211.8,36.2,211.3,36.1,210.9,36.1"/>
	<path clip-path="url(#SVGID_2_)" fill="#929191" d="M226.9,36.3h-4v0.5l0.5,0.1l0.4,0.2l0.3,0.3l0.1,0.4v3.1h-4.6v-3.1l0.1-0.4   L220,37l0.4-0.1l0.5-0.1v-0.5h-4v0.5l0.5,0.1l0.4,0.2l0.3,0.3l0.1,0.4v7.3l-0.1,0.5l-0.3,0.3c-0.1,0-0.2,0.1-0.4,0.1   c-0.2,0-0.4,0-0.5,0v0.5h4v-0.5c-0.1,0-0.3,0-0.5-0.1c-0.2,0-0.3-0.1-0.4-0.1l-0.3-0.3l-0.1-0.4v-3.5h4.6v3.6l-0.1,0.5l-0.3,0.3   c-0.1,0-0.2,0.1-0.4,0.1c-0.2,0-0.4,0-0.5,0v0.5h4v-0.5c-0.1,0-0.3,0-0.5-0.1c-0.2,0-0.3-0.1-0.4-0.1l-0.3-0.3l-0.1-0.4v-7.3   l0.1-0.4L226,37l0.4-0.1l0.5-0.1V36.3"/>
	<path clip-path="url(#SVGID_2_)" fill="#929191" d="M237.1,36.3h-7.5v0.5c0.1,0,0.3,0,0.5,0.1c0.2,0,0.4,0.1,0.5,0.2l0.3,0.3   l0.1,0.4V45l-0.1,0.4l-0.3,0.3c-0.1,0-0.2,0.1-0.4,0.1c-0.2,0-0.4,0.1-0.5,0.1v0.5h8l0.2-3h-0.5c-0.1,0.2-0.2,0.6-0.4,1   c-0.2,0.5-0.4,0.8-0.7,1l-0.4,0.2l-0.5,0.1c-0.2,0-0.4,0-0.6,0h-0.6c-0.4,0-0.7,0-0.9,0c-0.2,0-0.4-0.1-0.5-0.2l-0.2-0.4   c0-0.2-0.1-0.4-0.1-0.7v-3h1.1c0.3,0,0.5,0,0.7,0.1l0.5,0.4c0.1,0.1,0.2,0.3,0.2,0.5c0.1,0.3,0.1,0.5,0.1,0.7h0.5v-3.9h-0.5   c0,0.2-0.1,0.4-0.1,0.6c-0.1,0.2-0.2,0.4-0.3,0.5l-0.4,0.3c-0.2,0.1-0.4,0.1-0.8,0.1h-1.1v-4h1.5c0.3,0,0.5,0,0.7,0   c0.2,0,0.4,0,0.5,0c0.3,0,0.6,0.3,0.9,0.7c0.3,0.4,0.5,0.8,0.6,1.1h0.5V36.3"/>
	<path clip-path="url(#SVGID_2_)" fill="#929191" d="M248.3,36.1c-0.4,0-0.8,0.1-1.1,0.2c-0.4,0.1-0.7,0.3-0.9,0.6   c-0.3,0.3-0.5,0.6-0.6,0.9c-0.1,0.3-0.2,0.7-0.2,1.1c0,0.7,0.1,1.2,0.5,1.6c0.3,0.4,0.7,0.7,1.3,1c0.3,0.1,0.6,0.3,1,0.4   c0.4,0.2,0.7,0.3,1,0.4c0.4,0.2,0.8,0.4,1,0.8c0.2,0.3,0.3,0.7,0.3,1.1c0,0.3,0,0.5-0.1,0.7c-0.1,0.2-0.2,0.4-0.3,0.5   c-0.1,0.2-0.3,0.3-0.6,0.4c-0.2,0.1-0.5,0.1-0.8,0.1c-0.4,0-0.8-0.1-1.1-0.2c-0.3-0.2-0.6-0.4-0.8-0.7c-0.2-0.3-0.5-0.6-0.6-1   c-0.2-0.3-0.3-0.7-0.4-1.2h-0.5l0.1,3.5h0.5l0.3-0.5c0.3,0.2,0.7,0.4,1.1,0.5c0.4,0.1,0.9,0.2,1.3,0.2c0.9,0,1.7-0.3,2.4-0.9   c0.6-0.6,0.9-1.3,0.9-2.2c0-0.4,0-0.7-0.1-1c-0.1-0.3-0.2-0.5-0.5-0.8c-0.2-0.2-0.4-0.4-0.7-0.5c-0.3-0.2-0.5-0.3-0.8-0.4   c-0.3-0.1-0.6-0.3-0.9-0.4c-0.3-0.1-0.6-0.3-1-0.4c-0.4-0.2-0.7-0.4-0.9-0.7c-0.2-0.3-0.3-0.6-0.3-1.1c0-0.4,0.2-0.8,0.5-1.1   c0.3-0.3,0.7-0.4,1.1-0.4c0.4,0,0.8,0.1,1,0.2c0.3,0.2,0.5,0.4,0.7,0.7c0.2,0.3,0.4,0.6,0.5,1c0.1,0.4,0.2,0.7,0.3,1.1h0.6   l-0.1-3.3h-0.5l-0.3,0.5c-0.3-0.2-0.6-0.4-1-0.5C249.1,36.2,248.7,36.1,248.3,36.1"/>
	<path clip-path="url(#SVGID_2_)" fill="#929191" d="M262.3,36.3h-8.5v2.7h0.5c0-0.2,0.1-0.4,0.2-0.6c0.1-0.2,0.2-0.5,0.4-0.7   c0.1-0.2,0.3-0.4,0.5-0.6l0.5-0.3c0.2,0,0.4,0,0.6,0c0.2,0,0.4,0,0.5,0h0.4V45c0,0.2,0,0.3-0.1,0.5l-0.3,0.3   c-0.1,0-0.3,0.1-0.5,0.1c-0.3,0-0.5,0.1-0.6,0.1v0.5h4.6v-0.5c-0.1,0-0.4,0-0.6-0.1c-0.3-0.1-0.4-0.1-0.5-0.1l-0.3-0.3l-0.1-0.4   v-8.1h0.4c0.2,0,0.4,0,0.6,0c0.2,0,0.4,0,0.5,0l0.5,0.3c0.2,0.2,0.3,0.4,0.5,0.6c0.1,0.2,0.3,0.4,0.4,0.7c0.1,0.2,0.2,0.4,0.2,0.6   h0.5V36.3"/>
	<path clip-path="url(#SVGID_2_)" fill="#929191" d="M274.3,36.3h-4v0.5c0.1,0,0.4,0,0.6,0.1c0.3,0.1,0.5,0.2,0.7,0.3   c0.1,0.1,0.2,0.3,0.3,0.7c0.1,0.3,0.1,0.8,0.1,1.3v4.1c0,0.3,0,0.6-0.1,0.8c-0.1,0.3-0.2,0.5-0.4,0.8c-0.2,0.3-0.5,0.5-0.8,0.7   c-0.3,0.2-0.8,0.2-1.3,0.2c-0.5,0-0.9-0.1-1.3-0.2c-0.3-0.2-0.5-0.4-0.7-0.6c-0.2-0.3-0.3-0.5-0.3-0.8c-0.1-0.3-0.1-0.6-0.1-0.8   v-5.6l0.1-0.4l0.3-0.3c0.1,0,0.2-0.1,0.4-0.1l0.5-0.1v-0.5h-4v0.5l0.4,0.1l0.4,0.2l0.3,0.3l0.1,0.4v6c0,0.4,0.1,0.7,0.2,1.1   c0.2,0.3,0.4,0.7,0.7,0.9c0.3,0.3,0.7,0.5,1.1,0.6c0.5,0.2,1,0.2,1.6,0.2c0.4,0,0.7-0.1,1.1-0.2c0.4-0.1,0.8-0.3,1.1-0.6   c0.4-0.3,0.7-0.6,0.9-1c0.2-0.4,0.3-0.9,0.3-1.5v-4.4c0-0.5,0-0.9,0.1-1.3c0.1-0.3,0.2-0.6,0.3-0.7c0.2-0.1,0.4-0.2,0.6-0.2   c0.2-0.1,0.4-0.1,0.6-0.1V36.3"/>
	<path clip-path="url(#SVGID_2_)" fill="#929191" d="M280.8,45.8c-0.5,0-0.9-0.1-1.1-0.2c-0.2-0.2-0.4-0.5-0.4-0.9v-7.7   c0.1,0,0.3,0,0.5,0c0.2,0,0.4,0,0.6,0c0.6,0,1.1,0.1,1.5,0.3c0.5,0.2,0.8,0.5,1.2,0.9c0.3,0.4,0.6,0.9,0.8,1.4   c0.2,0.5,0.3,1.2,0.3,1.8c0,0.7-0.1,1.3-0.2,1.8c-0.1,0.5-0.3,1-0.6,1.4c-0.3,0.4-0.6,0.7-1.1,0.9   C281.9,45.7,281.4,45.8,280.8,45.8 M280.8,36.3h-4.2v0.5l0.4,0.1l0.5,0.2l0.3,0.3l0.1,0.4v7.3l-0.1,0.4l-0.3,0.3   c-0.1,0-0.2,0.1-0.4,0.1c-0.2,0-0.4,0-0.5,0v0.5h4c0.7,0,1.3-0.1,1.9-0.3c0.6-0.2,1.2-0.5,1.7-0.9c0.5-0.4,0.9-0.9,1.2-1.5   c0.3-0.6,0.5-1.4,0.5-2.2c0-0.9-0.2-1.7-0.5-2.4c-0.3-0.7-0.8-1.2-1.3-1.7c-0.4-0.3-0.9-0.6-1.5-0.8   C282,36.4,281.4,36.3,280.8,36.3"/>
	<path clip-path="url(#SVGID_2_)" fill="#929191" d="M292.7,36.3h-4.4v0.5c0.1,0,0.3,0,0.5,0.1c0.2,0,0.4,0.1,0.5,0.2l0.4,0.3   l0.1,0.4v7.3l-0.1,0.4l-0.3,0.3c-0.1,0-0.3,0.1-0.5,0.1c-0.2,0-0.4,0-0.5,0v0.5h4.4v-0.5c-0.2,0-0.3,0-0.6-0.1   c-0.2,0-0.4-0.1-0.5-0.1l-0.3-0.3l-0.1-0.4v-7.3l0.1-0.4l0.3-0.3c0.1,0,0.3-0.1,0.5-0.1c0.2,0,0.4,0,0.5-0.1V36.3"/>
	<path clip-path="url(#SVGID_2_)" fill="#929191" d="M302.8,36.3h-7.5v0.5c0.1,0,0.3,0,0.5,0.1c0.2,0,0.4,0.1,0.5,0.2l0.3,0.3   l0.1,0.4V45l-0.1,0.4l-0.3,0.3c-0.1,0-0.2,0.1-0.4,0.1c-0.2,0-0.4,0.1-0.5,0.1v0.5h8.1l0.2-3h-0.5c-0.1,0.2-0.2,0.6-0.4,1   c-0.2,0.5-0.4,0.8-0.7,1l-0.4,0.2l-0.5,0.1c-0.2,0-0.4,0-0.6,0h-0.6c-0.4,0-0.7,0-0.9,0c-0.2,0-0.4-0.1-0.5-0.2l-0.2-0.4   c0-0.2-0.1-0.4-0.1-0.7v-3h1.1c0.3,0,0.5,0,0.7,0.1l0.5,0.4c0.1,0.1,0.2,0.3,0.2,0.5c0.1,0.3,0.1,0.5,0.1,0.7h0.5v-3.9h-0.5   c0,0.2-0.1,0.4-0.1,0.6c-0.1,0.2-0.2,0.4-0.3,0.5l-0.4,0.3c-0.2,0.1-0.4,0.1-0.8,0.1h-1.1v-4h1.5c0.2,0,0.5,0,0.7,0   c0.2,0,0.4,0,0.5,0c0.3,0,0.6,0.3,0.9,0.7c0.3,0.4,0.5,0.8,0.6,1.1h0.5V36.3"/>
	<path clip-path="url(#SVGID_2_)" fill="#929191" d="M316,36.3H312v0.5c0.2,0,0.4,0.1,0.7,0.1c0.3,0.1,0.5,0.2,0.6,0.3   c0.1,0.1,0.2,0.3,0.3,0.6c0.1,0.3,0.1,0.8,0.1,1.4V44l-5.4-7.7h-2.8v0.5c0.2,0,0.4,0.1,0.7,0.2c0.3,0.1,0.5,0.2,0.7,0.4   c0.1,0.1,0.2,0.3,0.3,0.5c0.1,0.2,0.1,0.4,0.1,0.7v5c0,0.7,0,1.1-0.1,1.4c-0.1,0.3-0.2,0.5-0.3,0.6c-0.1,0.1-0.3,0.1-0.5,0.2   c-0.3,0.1-0.5,0.1-0.6,0.1v0.5h4v-0.5c-0.1,0-0.3-0.1-0.6-0.1c-0.3-0.1-0.5-0.2-0.6-0.3c-0.1-0.1-0.3-0.4-0.3-0.7   c-0.1-0.3-0.1-0.8-0.1-1.3v-5.2l5.9,8.2h0.6v-7.4c0-0.5,0-0.9,0.1-1.3c0.1-0.3,0.2-0.6,0.3-0.7c0.1-0.1,0.3-0.2,0.6-0.2   c0.3-0.1,0.5-0.1,0.6-0.1V36.3"/>
	<path clip-path="url(#SVGID_2_)" fill="#929191" d="M320.4,42.3l1.4-3.9l1.5,3.9H320.4 M322.6,36.2H322c-0.5,1.2-1,2.6-1.6,4.2   c-0.6,1.6-1.1,3-1.6,4.3c-0.1,0.2-0.2,0.4-0.3,0.6l-0.4,0.4l-0.4,0.2l-0.4,0.1v0.5h3.7v-0.5c-0.4,0-0.7-0.1-1-0.2   c-0.3-0.1-0.4-0.3-0.4-0.4l0-0.3c0-0.1,0.1-0.3,0.1-0.5c0.1-0.2,0.1-0.4,0.2-0.7c0.1-0.2,0.2-0.5,0.3-0.9h3.4l0.8,2.3l0,0.2l0,0.2   c0,0.1-0.1,0.2-0.4,0.3c-0.2,0.1-0.5,0.1-0.9,0.1v0.5h4v-0.5l-0.4-0.1l-0.4-0.2l-0.4-0.3l-0.2-0.4L322.6,36.2"/>
	<path clip-path="url(#SVGID_2_)" fill="#929191" d="M337.9,36.3h-3.6v0.5l0.2,0l0.3,0.1l0.3,0.1l0.1,0.2c0,0.2-0.1,0.4-0.3,0.7   c-0.2,0.3-0.4,0.6-0.8,1c-0.3,0.4-0.7,0.8-1.1,1.2c-0.4,0.4-0.8,0.8-1.2,1.1h-0.1v-3.5l0.1-0.4l0.3-0.3c0.1,0,0.2-0.1,0.4-0.1   c0.2,0,0.4-0.1,0.5-0.1v-0.5h-4v0.5l0.4,0.1l0.4,0.2l0.3,0.3l0.1,0.4v7.3l-0.1,0.4l-0.3,0.3c-0.1,0-0.2,0.1-0.4,0.1   c-0.2,0-0.4,0-0.5,0v0.5h4v-0.5c-0.1,0-0.3,0-0.5-0.1c-0.2,0-0.3-0.1-0.4-0.1l-0.3-0.3l-0.1-0.4v-3.5h0.2c0.7,0.8,1.4,1.6,2,2.4   c0.6,0.8,1.2,1.7,1.7,2.5h2.7v-0.5l-0.4-0.1l-0.4-0.1c-0.1-0.1-0.3-0.2-0.5-0.3c-0.2-0.2-0.4-0.4-0.6-0.6c-0.5-0.7-1-1.3-1.4-1.9   c-0.5-0.6-1-1.3-1.7-2.1c0.5-0.5,1-1,1.5-1.6c0.5-0.6,1-1.2,1.5-1.7l0.4-0.3l0.5-0.2l0.2-0.1l0.2,0l0.2,0l0.1,0V36.3"/>
	<path clip-path="url(#SVGID_2_)" fill="#929191" d="M342.4,42.3l1.4-3.9l1.5,3.9H342.4 M344.6,36.2h-0.5c-0.5,1.2-1,2.6-1.6,4.2   c-0.6,1.6-1.1,3-1.6,4.3c-0.1,0.2-0.2,0.4-0.3,0.6l-0.4,0.4l-0.4,0.2l-0.4,0.1v0.5h3.7v-0.5c-0.4,0-0.7-0.1-1-0.2   c-0.3-0.1-0.4-0.3-0.4-0.4l0-0.3c0-0.1,0.1-0.3,0.1-0.5c0.1-0.2,0.1-0.4,0.2-0.7c0.1-0.2,0.2-0.5,0.3-0.9h3.4l0.8,2.3l0,0.2l0,0.2   c0,0.1-0.1,0.2-0.4,0.3c-0.2,0.1-0.5,0.1-0.9,0.1v0.5h4v-0.5l-0.4-0.1l-0.4-0.2l-0.4-0.3l-0.2-0.4L344.6,36.2"/>
	<path clip-path="url(#SVGID_2_)" fill="#929191" d="M355.3,45.8c-0.5,0-0.9-0.1-1.1-0.2c-0.2-0.2-0.4-0.5-0.4-0.9v-7.7   c0.1,0,0.3,0,0.5,0c0.2,0,0.4,0,0.6,0c0.6,0,1.1,0.1,1.5,0.3c0.5,0.2,0.8,0.5,1.2,0.9c0.3,0.4,0.6,0.9,0.8,1.4   c0.2,0.5,0.3,1.2,0.3,1.8c0,0.7-0.1,1.3-0.2,1.8c-0.1,0.5-0.3,1-0.6,1.4c-0.3,0.4-0.6,0.7-1.1,0.9   C356.4,45.7,355.9,45.8,355.3,45.8 M355.3,36.3h-4.2v0.5l0.4,0.1l0.5,0.2l0.3,0.3l0.1,0.4v7.3l-0.1,0.4l-0.3,0.3   c-0.1,0-0.2,0.1-0.4,0.1c-0.2,0-0.4,0-0.5,0v0.5h4c0.7,0,1.3-0.1,1.9-0.3c0.6-0.2,1.2-0.5,1.7-0.9c0.5-0.4,0.9-0.9,1.2-1.5   c0.3-0.6,0.5-1.4,0.5-2.2c0-0.9-0.2-1.7-0.5-2.4c-0.3-0.7-0.8-1.2-1.3-1.7c-0.4-0.3-0.9-0.6-1.5-0.8   C356.5,36.4,355.9,36.3,355.3,36.3"/>
	<path clip-path="url(#SVGID_2_)" fill="#929191" d="M370.4,36.3h-7.5v0.5c0.1,0,0.3,0,0.5,0.1c0.2,0,0.4,0.1,0.5,0.2l0.3,0.3   l0.1,0.4V45l-0.1,0.4l-0.3,0.3c-0.1,0-0.2,0.1-0.4,0.1c-0.2,0-0.4,0.1-0.5,0.1v0.5h8.1l0.2-3h-0.5c-0.1,0.2-0.2,0.6-0.4,1   c-0.2,0.5-0.5,0.8-0.7,1l-0.4,0.2l-0.5,0.1c-0.2,0-0.4,0-0.6,0h-0.6c-0.4,0-0.7,0-0.9,0c-0.2,0-0.4-0.1-0.5-0.2l-0.2-0.4   c0-0.2-0.1-0.4-0.1-0.7v-3h1.1c0.3,0,0.5,0,0.7,0.1l0.5,0.4c0.1,0.1,0.2,0.3,0.2,0.5c0.1,0.3,0.1,0.5,0.1,0.7h0.5v-3.9h-0.5   c0,0.2-0.1,0.4-0.1,0.6c-0.1,0.2-0.2,0.4-0.3,0.5l-0.4,0.3c-0.2,0.1-0.4,0.1-0.8,0.1h-1.1v-4h1.5c0.3,0,0.5,0,0.7,0   c0.2,0,0.4,0,0.5,0c0.3,0,0.6,0.3,0.9,0.7c0.3,0.4,0.5,0.8,0.6,1.1h0.5V36.3"/>
	<path clip-path="url(#SVGID_2_)" fill="#929191" d="M385.3,36.3h-3.2c0,0.1,0,0.3-0.1,0.5c-0.1,0.3-0.1,0.5-0.2,0.7l-2.4,6.3   l-2.8-7.6h-3.3v0.5c0.2,0,0.4,0,0.6,0.1c0.2,0.1,0.4,0.2,0.5,0.3l0.3,0.5c0.1,0.2,0.1,0.4,0.1,0.7v5.2c0,0.6,0,1.1-0.1,1.4   c-0.1,0.3-0.2,0.5-0.3,0.6c-0.1,0.1-0.3,0.2-0.5,0.2c-0.2,0.1-0.4,0.1-0.6,0.1v0.5h3.9v-0.5c-0.1,0-0.3-0.1-0.6-0.1   c-0.3-0.1-0.5-0.2-0.6-0.3c-0.1-0.1-0.3-0.4-0.3-0.7c-0.1-0.3-0.1-0.7-0.1-1.3v-6h0.1l3.2,8.8h0.3l3.3-8.6h0.1V45l-0.1,0.4   l-0.3,0.3c-0.1,0.1-0.3,0.1-0.5,0.1c-0.2,0-0.4,0-0.6,0v0.5h4.3v-0.5c-0.1,0-0.3,0-0.5-0.1c-0.2,0-0.4-0.1-0.4-0.1l-0.3-0.3   l-0.1-0.4v-7.3l0.1-0.4l0.3-0.3c0.1,0,0.2-0.1,0.4-0.1c0.2,0,0.4-0.1,0.5-0.1V36.3"/>
	<path clip-path="url(#SVGID_2_)" fill="#929191" d="M392.3,36.3h-4.4v0.5c0.1,0,0.3,0,0.5,0.1c0.2,0,0.4,0.1,0.5,0.2l0.4,0.3   l0.1,0.4v7.3l-0.1,0.4l-0.3,0.3c-0.1,0-0.3,0.1-0.5,0.1c-0.2,0-0.4,0-0.5,0v0.5h4.4v-0.5c-0.2,0-0.3,0-0.5-0.1   c-0.2,0-0.4-0.1-0.5-0.1l-0.3-0.3l-0.1-0.4v-7.3l0.1-0.4l0.3-0.3c0.1,0,0.3-0.1,0.5-0.1c0.2,0,0.4,0,0.5-0.1V36.3"/>
	<path clip-path="url(#SVGID_2_)" fill="#929191" d="M402.4,36.3h-7.5v0.5c0.1,0,0.3,0,0.5,0.1c0.2,0,0.4,0.1,0.5,0.2l0.3,0.3   l0.1,0.4V45l-0.1,0.4l-0.3,0.3c-0.1,0-0.2,0.1-0.4,0.1c-0.2,0-0.4,0.1-0.5,0.1v0.5h8.1l0.2-3h-0.5c-0.1,0.2-0.2,0.6-0.4,1   c-0.2,0.5-0.5,0.8-0.7,1l-0.4,0.2l-0.5,0.1c-0.2,0-0.4,0-0.6,0h-0.6c-0.4,0-0.7,0-0.9,0c-0.2,0-0.4-0.1-0.5-0.2l-0.2-0.4   c0-0.2-0.1-0.4-0.1-0.7v-3h1.1c0.3,0,0.5,0,0.7,0.1l0.5,0.4c0.1,0.1,0.2,0.3,0.2,0.5c0.1,0.3,0.1,0.5,0.1,0.7h0.5v-3.9h-0.5   c0,0.2-0.1,0.4-0.1,0.6c-0.1,0.2-0.2,0.4-0.3,0.5l-0.4,0.3c-0.2,0.1-0.4,0.1-0.8,0.1h-1.1v-4h1.5c0.2,0,0.5,0,0.7,0   c0.2,0,0.4,0,0.5,0c0.3,0,0.6,0.3,0.9,0.7c0.3,0.4,0.5,0.8,0.6,1.1h0.5V36.3"/>
</g>
</svg>